<svg width="60" height="57" viewBox="0 0 60 57" fill="none" xmlns="http://www.w3.org/2000/svg">
<g opacity="0.35">
<g opacity="0.35">
<path opacity="0.35" d="M55.087 41.717H5.72371C3.4767 41.717 1.75914 39.7326 2.10873 37.5405L5.79464 14.3862C5.91623 13.6255 6.57995 13.0649 7.35766 13.0649H53.6379C54.4308 13.0649 55.1022 13.643 55.2086 14.4187L58.4309 37.9384C58.7045 39.9378 57.1313 41.717 55.087 41.717Z" fill="#792937"/>
</g>
<g opacity="0.35">
<path opacity="0.35" d="M55.0868 41.7798H5.72367C4.63436 41.7798 3.60079 41.3093 2.89401 40.491C2.18723 39.6728 1.87564 38.5942 2.04537 37.5282L5.73126 14.3738C5.85793 13.578 6.54191 13 7.35762 13H53.6377C54.4585 13 55.1602 13.6056 55.2717 14.4088L58.494 37.9286C58.6283 38.8995 58.3293 39.8805 57.6758 40.6187C57.0222 41.3569 56.0798 41.7798 55.0868 41.7798ZM7.35762 13.1276C6.60524 13.1276 5.97446 13.6606 5.85539 14.3963L2.1695 37.5508C2.00484 38.5792 2.30376 39.6202 2.98774 40.411C3.67173 41.2017 4.66983 41.6546 5.72113 41.6546H55.0842C56.0393 41.6546 56.9487 41.2468 57.577 40.5361C58.2052 39.8254 58.494 38.882 58.3648 37.9461L55.1425 14.4264C55.0412 13.6856 54.3927 13.1276 53.6352 13.1276H7.35762Z" fill="#1B1B1B"/>
</g>
</g>
<path d="M13.9085 41.0063V43.5187C13.9085 44.0893 13.4424 44.5497 12.8648 44.5497H8.55824C8.09212 44.5497 7.68173 44.2444 7.55253 43.799L7.17001 42.4652L6.75201 41.0063H13.9085V41.0063Z" fill="#FFD78F"/>
<path d="M12.8622 44.6147H8.55568C8.06169 44.6147 7.62344 44.2869 7.48917 43.8189L6.6684 40.9463H13.9718V43.5211C13.9718 44.1217 13.4727 44.6147 12.8622 44.6147ZM6.83559 41.0689L7.61077 43.7839C7.72983 44.1993 8.11996 44.4895 8.55568 44.4895H12.8648C13.4069 44.4895 13.8477 44.0541 13.8477 43.5186V41.0689H6.83559Z" fill="#1B1B1B"/>
<path d="M54.6535 41.0063L54.2355 42.4652L53.853 43.799C53.7263 44.2444 53.3159 44.5497 52.8473 44.5497H48.5407C47.9631 44.5497 47.497 44.0893 47.497 43.5187V41.0063H54.6535V41.0063Z" fill="#FFD78F"/>
<path d="M52.8498 44.6147H48.5432C47.9327 44.6147 47.4337 44.1243 47.4337 43.5187V40.9438H54.7371L53.9137 43.8165C53.782 44.2869 53.3438 44.6147 52.8498 44.6147ZM47.5603 41.069V43.5187C47.5603 44.0542 48.0011 44.4896 48.5432 44.4896H52.8498C53.288 44.4896 53.6756 44.1993 53.7947 43.784L54.5724 41.069H47.5603Z" fill="#1B1B1B"/>
<path d="M59.3172 34.9232H1.81207L6.16169 7.59225C6.28328 6.83153 6.947 6.271 7.72471 6.271H54.0049C54.7978 6.271 55.4691 6.84904 55.5755 7.62478L59.3172 34.9232Z" fill="#FFD78F"/>
<path d="M59.3881 34.9857H1.73608L6.09836 7.58229C6.22503 6.78654 6.90901 6.2085 7.72472 6.2085H54.0049C54.8257 6.2085 55.5274 6.81407 55.6389 7.61733L59.3881 34.9857ZM1.88555 34.8606H59.2437L55.5122 7.63234C55.4109 6.89164 54.7624 6.33361 54.0049 6.33361H7.72472C6.97234 6.33361 6.34156 6.86662 6.22249 7.60231L1.88555 34.8606Z" fill="#1B1B1B"/>
<g opacity="0.35">
<path opacity="0.35" d="M9.44992 6.271C8.6722 6.271 8.00849 6.83153 7.88689 7.59225L3.53728 34.9232H2.14398L6.4936 7.59225C6.61519 6.83153 7.27891 6.271 8.05662 6.271H9.44992V6.271Z" fill="#1B1B1B"/>
</g>
<g opacity="0.55">
<path opacity="0.55" d="M59.3172 34.9232H57.7972L54.0556 7.62478C53.9492 6.84904 53.2779 6.271 52.485 6.271H54.0049C54.7979 6.271 55.4692 6.84904 55.5756 7.62478L59.3172 34.9232Z" fill="white"/>
</g>
<path d="M1.81207 34.9231L3.07111 39.8277C3.24843 40.5209 3.88175 41.0089 4.60626 41.0089H56.523C57.2475 41.0089 57.8808 40.5234 58.0581 39.8277L59.3172 34.9231H1.81207Z" fill="#FFD78F"/>
<path d="M56.5229 41.0689H4.60627C3.85136 41.0689 3.19524 40.5634 3.01032 39.8427L1.73102 34.8606H59.3982L58.1189 39.8427C57.934 40.5634 57.2753 41.0689 56.5229 41.0689ZM1.89315 34.9857L3.13191 39.8127C3.30417 40.4808 3.90962 40.9463 4.60627 40.9463H56.5229C57.2196 40.9463 57.825 40.4808 57.9973 39.8127L59.2361 34.9857H1.89315Z" fill="#1B1B1B"/>
<g opacity="0.35">
<path opacity="0.35" d="M6.75195 41.0063H13.9085V42.4677H7.16741L6.75195 41.0063Z" fill="#1B1B1B"/>
</g>
<g opacity="0.35">
<path opacity="0.35" d="M54.6534 41.0063L54.2354 42.4677H47.4969V41.0063H54.6534Z" fill="#1B1B1B"/>
</g>
<g opacity="0.35">
<path opacity="0.35" d="M6.33404 41.0064H4.60634C3.88182 41.0064 3.2485 40.5209 3.07117 39.8277L1.81213 34.9231H3.53983L4.8014 39.8277C4.9762 40.5209 5.60952 41.0064 6.33404 41.0064Z" fill="#1B1B1B"/>
</g>
<g opacity="0.55">
<path opacity="0.55" d="M59.3172 34.9231L58.0582 39.8277C57.8783 40.5209 57.2475 41.0064 56.523 41.0064H54.8764C55.6009 41.0064 56.2342 40.5209 56.4116 39.8277L57.6706 34.9231H59.3172Z" fill="white"/>
</g>
<g opacity="0.55">
<path opacity="0.55" d="M13.7818 41.0063V43.5187C13.7818 44.0893 13.3156 44.5497 12.7381 44.5497H11.783C12.3606 44.5497 12.8267 44.0893 12.8267 43.5187V41.0063H13.7818Z" fill="white"/>
</g>
<g opacity="0.55">
<path opacity="0.55" d="M54.6534 41.0063L53.8555 43.799C53.7288 44.2444 53.3184 44.5497 52.8498 44.5497H51.6794C52.148 44.5497 52.5584 44.2444 52.6851 43.799L53.4831 41.0063H54.6534Z" fill="white"/>
</g>
<path d="M12.8622 44.9902H8.55569C7.89197 44.9902 7.30425 44.5498 7.12439 43.9192L6.32641 41.1266C6.26054 40.8939 6.39734 40.6512 6.63293 40.5861C6.86853 40.5211 7.11425 40.6562 7.18012 40.8889L7.9781 43.6815C8.05156 43.9367 8.28969 44.1144 8.55822 44.1144H12.8648C13.1966 44.1144 13.4677 43.8466 13.4677 43.5188V41.0065C13.4677 40.7638 13.6653 40.5686 13.911 40.5686C14.1567 40.5686 14.3543 40.7638 14.3543 41.0065V43.5188C14.3518 44.3296 13.683 44.9902 12.8622 44.9902Z" fill="#1B1B1B"/>
<path d="M52.8498 44.9902H48.5432C47.7225 44.9902 47.0562 44.3296 47.0562 43.5188V41.0065C47.0562 40.7638 47.2538 40.5686 47.4995 40.5686C47.7453 40.5686 47.9429 40.7638 47.9429 41.0065V43.5188C47.9429 43.8466 48.2139 44.1144 48.5458 44.1144H52.8523C53.1208 44.1144 53.359 43.9367 53.4324 43.6815L54.2304 40.8889C54.2963 40.6562 54.542 40.5211 54.7776 40.5861C55.0132 40.6512 55.15 40.8939 55.0841 41.1266L54.2861 43.9192C54.1012 44.5498 53.5135 44.9902 52.8498 44.9902Z" fill="#1B1B1B"/>
<path d="M59.3173 35.3609H1.81214C1.68294 35.3609 1.55881 35.3059 1.47522 35.2083C1.39162 35.1107 1.35362 34.9831 1.37389 34.8554L5.7235 7.52461C5.88057 6.54368 6.72161 5.83301 7.72478 5.83301H54.005C55.0158 5.83301 55.8796 6.57871 56.0139 7.56715L59.7555 34.8654C59.7733 34.9906 59.7353 35.1182 59.6491 35.2133C59.5655 35.3059 59.4439 35.3609 59.3173 35.3609ZM2.32893 34.4851H58.8081L55.1374 7.68226C55.0614 7.12673 54.575 6.70884 54.005 6.70884H7.72478C7.15986 6.70884 6.68614 7.10921 6.59748 7.65973L2.32893 34.4851Z" fill="#1B1B1B"/>
<path d="M56.523 41.4443H4.6063C3.67659 41.4443 2.86848 40.8237 2.64048 39.9328L1.38145 35.0282C1.32065 34.793 1.46505 34.5552 1.70318 34.4952C1.9413 34.4351 2.18196 34.5777 2.24276 34.813L3.50179 39.7176C3.63099 40.2181 4.08444 40.5684 4.6063 40.5684H56.523C57.0449 40.5684 57.5009 40.2181 57.6275 39.7176L58.8865 34.813C58.9473 34.5777 59.188 34.4376 59.4261 34.4952C59.6643 34.5552 59.8061 34.793 59.7479 35.0282L58.4888 39.9328C58.2583 40.8237 57.4502 41.4443 56.523 41.4443Z" fill="#1B1B1B"/>
<g opacity="0.35">
<g opacity="0.35">
<path opacity="0.35" d="M42.7877 30.9318H33.6096C33.2499 30.9318 32.9054 31.0669 32.6419 31.3046L31.8896 31.9953L29.7135 33.9872C29.4652 34.2149 29.1866 34.3951 28.8952 34.5302C28.4697 34.7279 28.0086 34.8255 27.5475 34.823C26.7724 34.823 25.9972 34.5427 25.3892 33.9872L22.4633 31.3046C22.1998 31.0644 21.8553 30.9318 21.4956 30.9318H12.3201C10.0249 30.9318 8.27193 28.9074 8.62912 26.6678L8.60632 19.8038C8.56832 19.476 8.57338 19.1381 8.62912 18.7953L10.6203 6.271H44.7611L46.4888 18.8729C46.5141 19.0581 46.5268 19.2407 46.5217 19.4184C46.5217 19.4409 46.5217 19.4635 46.5192 19.4835H46.5217L46.4888 26.7453C46.7953 28.9599 45.0499 30.9318 42.7877 30.9318Z" fill="#792937"/>
</g>
<g opacity="0.35">
<path opacity="0.35" d="M27.5576 34.8855C27.5551 34.8855 27.5526 34.8855 27.5475 34.8855C26.7267 34.883 25.9465 34.5802 25.3461 34.0322L22.4202 31.3522C22.1669 31.122 21.8401 30.9944 21.4955 30.9944H12.3201C11.208 30.9944 10.1541 30.5164 9.43217 29.6806C8.71019 28.8448 8.39353 27.7438 8.56832 26.6578L8.54552 19.8038C8.50753 19.471 8.51259 19.1256 8.56832 18.7878L10.5696 6.21094H44.8218L46.5571 18.8679C46.5824 19.0556 46.5951 19.2433 46.59 19.4234C46.59 19.4384 46.59 19.451 46.59 19.466V19.4885L46.5571 26.7478C46.704 27.8139 46.3747 28.8974 45.6527 29.7131C44.9307 30.5289 43.887 30.9969 42.7901 30.9969H33.6121C33.2701 30.9969 32.9408 31.1245 32.6875 31.3547L29.759 34.0322C29.5108 34.2599 29.2296 34.4451 28.9256 34.5853C28.5025 34.7829 28.0288 34.8855 27.5576 34.8855ZM10.676 6.33355L8.69245 18.8053C8.63926 19.1331 8.63419 19.4685 8.67219 19.7963L8.69499 26.6678C8.52779 27.7263 8.83178 28.7923 9.53096 29.598C10.2301 30.4063 11.2485 30.8692 12.3226 30.8692H21.5006C21.8755 30.8692 22.2327 31.0069 22.5089 31.2596L25.4373 33.9421C26.0149 34.4701 26.7647 34.7604 27.5526 34.7629C27.5551 34.7629 27.5576 34.7629 27.5602 34.7629C28.0136 34.7629 28.4671 34.6628 28.8724 34.4751C29.1663 34.34 29.4373 34.1624 29.6754 33.9421L32.6039 31.2596C32.88 31.0069 33.2397 30.8692 33.6121 30.8692H42.7901C43.8516 30.8692 44.8598 30.4163 45.5565 29.6281C46.2531 28.8398 46.5723 27.7913 46.4304 26.7528L46.4634 19.546H46.4608L46.4634 19.4785C46.4634 19.4585 46.4634 19.4384 46.4634 19.4184C46.4659 19.2433 46.4558 19.0631 46.4304 18.8804L44.7103 6.33355H10.676V6.33355Z" fill="#1B1B1B"/>
</g>
</g>
<g opacity="0.25">
<g opacity="0.25">
<path opacity="0.25" d="M58.5243 27.4911C57.3261 27.4211 56.181 27.7914 55.1804 28.3594C54.9296 28.5046 54.6889 28.6622 54.4533 28.8274C54.2203 28.995 53.9923 29.1752 53.7719 29.3629C53.554 29.5531 53.3362 29.7457 53.1284 29.9484C52.9207 30.1511 52.7155 30.3588 52.5154 30.5715C52.11 30.9919 51.7199 31.4323 51.3273 31.8727C50.927 32.3081 50.5318 32.7511 50.1037 33.1689C49.2601 34.0047 48.305 34.783 47.2031 35.2484C48.2012 34.5978 49.0346 33.772 49.8149 32.9012C50.1999 32.4608 50.585 32.0179 50.965 31.5624C51.3475 31.1145 51.7402 30.6666 52.148 30.2287C52.5635 29.7983 52.9967 29.3804 53.4654 29C53.7035 28.8124 53.9467 28.6347 54.2025 28.467C54.4584 28.3019 54.7219 28.1517 54.9955 28.0166C55.2716 27.8865 55.5502 27.7639 55.839 27.6688C56.1304 27.5762 56.4242 27.4986 56.7257 27.4461C57.0272 27.401 57.3286 27.3735 57.6326 27.3785C57.9341 27.386 58.233 27.4261 58.5243 27.4911Z" fill="#1B1B1B"/>
</g>
<g opacity="0.25">
<path opacity="0.25" d="M58.6027 29.6456C58.0758 29.8483 57.6097 30.1261 57.2221 30.4789C56.832 30.8292 56.5205 31.2521 56.3153 31.715C56.1101 32.1805 56.0113 32.6935 56.0138 33.214C56.0164 33.7369 56.1253 34.2624 56.333 34.7829C55.9429 34.3725 55.7023 33.8195 55.6161 33.2465C55.5325 32.6709 55.6085 32.0629 55.8492 31.5174C56.0898 30.9718 56.4901 30.5039 56.9739 30.1736C57.4603 29.8433 58.0328 29.6406 58.6027 29.6456Z" fill="#1B1B1B"/>
</g>
<g opacity="0.25">
<path opacity="0.25" d="M3.46124 22.061C3.81083 23.6225 4.51508 25.0764 5.49546 26.3076C6.47583 27.5362 7.72727 28.5472 9.15603 29.2028C9.87041 29.5406 10.6253 29.8059 11.3828 30.0836C12.1377 30.3689 12.9053 30.6567 13.6273 31.0596C14.3492 31.4574 15.0155 31.9654 15.5475 32.591C15.8109 32.9063 16.0415 33.2491 16.2087 33.622C16.3784 33.9923 16.4848 34.3902 16.5152 34.7881C16.348 34.0023 15.9173 33.3092 15.3625 32.7562C14.8103 32.1956 14.144 31.7577 13.4423 31.4074C12.733 31.0646 11.9806 30.7918 11.2206 30.5316C10.4607 30.2663 9.69055 30.0011 8.9407 29.6582C8.19592 29.3054 7.48661 28.865 6.85329 28.337C6.22251 27.8065 5.65505 27.2084 5.1788 26.5428C4.22122 25.219 3.60057 23.6575 3.46124 22.061Z" fill="#1B1B1B"/>
</g>
<g opacity="0.25">
<path opacity="0.25" d="M2.36182 30.2362C3.05846 30.1211 3.77284 30.071 4.49229 30.1636C5.20921 30.2512 5.93119 30.4939 6.5341 30.9469C6.83303 31.1721 7.09395 31.4574 7.29155 31.7752C7.48914 32.093 7.62847 32.4433 7.69687 32.8037C7.84127 33.5218 7.7298 34.2901 7.34475 34.8831C7.52968 34.2075 7.50434 33.5218 7.31182 32.8987C7.11422 32.2731 6.7393 31.7301 6.22505 31.3423C5.70826 30.9519 5.08001 30.7016 4.42136 30.544C3.76018 30.3889 3.06353 30.3263 2.36182 30.2362Z" fill="#1B1B1B"/>
</g>
<g opacity="0.25">
<path opacity="0.25" d="M57.9138 24.6809L57.2146 24.6459C56.9815 24.6459 56.7485 24.6408 56.5154 24.6459C56.2823 24.6559 56.0493 24.6584 55.8187 24.6734C55.5857 24.6934 55.3552 24.7034 55.1246 24.7334C54.2 24.8335 53.2855 25.0087 52.3862 25.2389C50.585 25.6918 48.8447 26.355 47.1423 27.0957C45.44 27.8389 43.7579 28.6421 42.0403 29.3828C40.3228 30.121 38.5571 30.7841 36.723 31.2296C35.806 31.4523 34.8687 31.5999 33.9314 31.6975C33.4627 31.7526 32.9915 31.7726 32.5203 31.8001C32.0491 31.8101 31.578 31.8276 31.1068 31.8076C30.1644 31.7851 29.222 31.7175 28.2898 31.5874C27.3575 31.4623 26.4304 31.2971 25.5159 31.0769C21.8578 30.2161 18.3796 28.6897 15.2485 26.6803C16.0592 27.1382 16.8825 27.5711 17.721 27.9765C18.5595 28.3794 19.4132 28.7472 20.2796 29.0825C22.0098 29.7632 23.7907 30.3012 25.6045 30.6966C27.4183 31.0769 29.2625 31.3196 31.1144 31.3347C31.5754 31.3447 32.039 31.3297 32.5001 31.3171C32.9611 31.2871 33.4222 31.2646 33.8807 31.2095C34.7977 31.1094 35.7097 30.9618 36.6065 30.7416C38.4026 30.3162 40.1429 29.6631 41.8554 28.9449C43.5704 28.2317 45.2576 27.4385 46.9903 26.7328C48.718 26.0196 50.4964 25.3991 52.3304 24.9987C53.2475 24.8035 54.1772 24.6634 55.1145 24.6008C55.3476 24.5808 55.5832 24.5808 55.8162 24.5683C56.0493 24.5608 56.2849 24.5683 56.5179 24.5683C56.751 24.5758 56.9866 24.5933 57.2196 24.6058L57.9138 24.6809Z" fill="#1B1B1B"/>
</g>
<g opacity="0.25">
<path opacity="0.25" d="M56.7232 15.9878L55.8366 15.7901C55.6896 15.7576 55.5427 15.7226 55.3932 15.6951L54.9448 15.62C54.6459 15.5699 54.3495 15.5124 54.0506 15.4698L53.1513 15.3622C52.8524 15.3197 52.5509 15.3047 52.2494 15.2822L51.7985 15.2496C51.6491 15.2396 51.4971 15.2246 51.3476 15.2271C50.7447 15.2171 50.1418 15.1921 49.5388 15.2246C47.1272 15.2697 44.7307 15.675 42.428 16.3532L41.5717 16.6359L41.1436 16.7786L40.7231 16.9412C40.4444 17.0513 40.1607 17.1539 39.8846 17.2665L39.0613 17.6294C38.7851 17.7445 38.5191 17.8821 38.2506 18.0173C37.9846 18.1549 37.7136 18.28 37.4526 18.4276C36.9333 18.7279 36.4089 19.0132 35.9073 19.341C34.8966 19.9866 33.9111 20.6798 32.8902 21.3404C32.381 21.6707 31.8617 21.991 31.3272 22.2888C30.7927 22.5866 30.2455 22.8643 29.673 23.0971C29.103 23.3298 28.5153 23.5325 27.9098 23.6701C27.3044 23.8102 26.6888 23.8953 26.0681 23.9254C24.8294 23.9854 23.5855 23.8353 22.3949 23.505C21.2068 23.1746 20.0719 22.6717 19.0231 22.0336C17.9743 21.398 17.0142 20.6197 16.1757 19.7314C15.3347 18.8455 14.633 17.8371 14.0579 16.7711C13.4829 15.7051 13.0319 14.574 12.7001 13.4154C12.3733 12.2543 12.1757 11.0607 12.0744 9.86703L12.0389 9.4191L12.0186 8.96868C12.0009 8.66839 12.0009 8.36811 11.9984 8.07032C11.9933 7.77004 12.0136 7.47226 12.0186 7.17197C12.0313 6.87169 12.0566 6.57391 12.0744 6.27612C11.9908 8.66589 12.2238 11.0757 12.9382 13.3503C13.2903 14.4864 13.7514 15.59 14.3366 16.6234C14.9192 17.6594 15.6235 18.6253 16.4569 19.4711C18.1263 21.1502 20.2289 22.4314 22.5241 23.047C23.6691 23.3548 24.8598 23.5 26.0428 23.4374C26.633 23.4074 27.2208 23.3248 27.7958 23.1897C28.3709 23.057 28.9307 22.8593 29.4779 22.6366C30.0276 22.4139 30.5596 22.1487 31.0815 21.8584C31.6033 21.5706 32.115 21.2578 32.6192 20.9325C33.6299 20.2844 34.6179 19.5887 35.6489 18.9431C37.7136 17.6469 39.9707 16.656 42.314 15.9853C44.6648 15.3422 47.0968 14.9744 49.5312 14.9794C50.1392 14.9669 50.7472 15.0094 51.3552 15.0394C51.5072 15.0444 51.6592 15.062 51.8087 15.077L52.2621 15.122C52.5636 15.152 52.8676 15.1771 53.1665 15.2296L54.0658 15.3672C54.3647 15.4198 54.6611 15.4874 54.9575 15.5474L55.4034 15.64C55.5503 15.675 55.6972 15.7176 55.8441 15.7551L56.7232 15.9878Z" fill="#1B1B1B"/>
</g>
<g opacity="0.25">
<path opacity="0.25" d="M6.90395 6.82411C7.8058 10.0622 9.51829 13.1025 11.8641 15.5899C9.39669 13.2201 7.50687 10.2398 6.4201 6.97175C6.37703 6.84163 6.44796 6.699 6.58223 6.65646C6.71396 6.61392 6.85835 6.68398 6.90142 6.81661C6.90142 6.81661 6.90395 6.82161 6.90395 6.82411Z" fill="#1B1B1B"/>
</g>
<g opacity="0.25">
<path opacity="0.25" d="M43.4717 6.271C44.2013 7.17185 45.0448 7.95759 45.9923 8.58319C46.4685 8.89098 46.9651 9.16624 47.4869 9.38144C48.0062 9.60415 48.5458 9.77682 49.0981 9.88942C49.6478 10.012 50.2127 10.0771 50.7776 10.0921C51.3451 10.1171 51.9125 10.0721 52.4774 9.99953C53.6073 9.83938 54.7118 9.49655 55.7656 8.99608C54.8207 9.67672 53.7086 10.1447 52.5458 10.3824C51.9657 10.5075 51.3679 10.5626 50.77 10.5651C50.1722 10.5626 49.5743 10.4975 48.9891 10.3774C48.404 10.2473 47.8314 10.0621 47.2893 9.81185C46.7497 9.55661 46.2329 9.25883 45.7618 8.89849C44.8194 8.18781 44.0265 7.28696 43.4717 6.271Z" fill="#1B1B1B"/>
</g>
<g opacity="0.25">
<path opacity="0.25" d="M57.1639 17.9522C56.1734 18.1374 55.1424 17.9923 54.2178 18.2075C53.9872 18.26 53.7643 18.3351 53.5566 18.4277C53.3514 18.5253 53.1589 18.6479 53.0043 18.798C52.6953 19.0883 52.5053 19.5237 52.5256 19.9291C52.5281 20.0292 52.5484 20.1268 52.5788 20.2219C52.6142 20.312 52.6547 20.3995 52.7155 20.4796C52.8346 20.6398 53.0094 20.7724 53.207 20.8825C53.4021 20.9976 53.6275 21.0877 53.8504 21.1778C54.0759 21.2629 54.3064 21.3379 54.5369 21.408C55.4692 21.6733 56.4546 21.7759 57.4527 21.7233C56.485 21.9836 55.4413 21.9961 54.4407 21.7884C54.1899 21.7358 53.9416 21.6733 53.6984 21.5907C53.4553 21.5081 53.2146 21.423 52.9739 21.3004C52.7358 21.1778 52.5002 21.0076 52.3178 20.7749C52.2266 20.6598 52.1582 20.5222 52.1025 20.3845C52.0544 20.2444 52.024 20.0993 52.0164 19.9541C52.0062 19.6638 52.0696 19.3811 52.1836 19.1258C52.3001 18.8706 52.4622 18.6379 52.675 18.4527C53.0981 18.0874 53.625 17.8972 54.1392 17.8271C54.6585 17.747 55.1728 17.7821 55.6693 17.8271C56.1734 17.8772 56.6623 17.9372 57.1639 17.9522Z" fill="#1B1B1B"/>
</g>
<g opacity="0.25">
<path opacity="0.25" d="M5.54867 12.3242C6.11612 12.637 6.63797 13.0324 7.11169 13.4828C7.57781 13.9407 7.99834 14.4487 8.34286 15.0068C9.03191 16.1203 9.4803 17.399 9.5183 18.7378C9.5259 19.4034 9.4119 20.0866 9.13324 20.7047C8.85205 21.3177 8.41633 21.8833 7.82861 22.2486C6.66077 22.9918 5.04708 22.8642 4.07684 21.9934C5.17121 22.6865 6.62784 22.624 7.60568 21.9258C8.09207 21.573 8.46699 21.075 8.69245 20.517C8.92804 19.9615 9.02684 19.3559 9.01164 18.7453C9.00658 18.1347 8.89258 17.5216 8.71778 16.9261C8.55059 16.328 8.29473 15.755 8.0034 15.2019C7.70194 14.6539 7.34222 14.1334 6.93183 13.6505C6.52144 13.165 6.05279 12.7271 5.54867 12.3242Z" fill="#1B1B1B"/>
</g>
</g>
<g opacity="0.2">
<g opacity="0.2">
<path opacity="0.2" d="M47.7883 35.3336C46.9422 36.5673 45.8478 37.6408 44.5989 38.4991L44.3633 38.6592C44.2848 38.7143 44.2063 38.7643 44.1227 38.8119L43.6337 39.1022C43.2968 39.2798 42.9624 39.4625 42.6128 39.6127C41.9187 39.923 41.1967 40.1832 40.452 40.3634C39.7097 40.546 38.9497 40.6687 38.1822 40.7137L37.6071 40.7287L37.3208 40.7362C37.2246 40.7362 37.1283 40.7312 37.0346 40.7262L36.4595 40.7062L35.887 40.6536L35.6008 40.6261L35.317 40.5861L34.7496 40.501L34.1872 40.3909L33.906 40.3358L33.6273 40.2708L33.0726 40.1382L32.5228 39.988C32.1555 39.8929 31.7958 39.7728 31.431 39.6652C29.9896 39.1998 28.5786 38.6617 27.1701 38.1388C26.4658 37.876 25.7616 37.6208 25.0523 37.3805C24.3404 37.1428 23.626 36.9101 22.9091 36.6874C21.4727 36.2494 20.0263 35.8441 18.557 35.5313C17.8223 35.3711 17.0851 35.2285 16.3404 35.1234C16.1554 35.0933 15.968 35.0733 15.7805 35.0483C15.593 35.0233 15.4081 35.0008 15.2207 34.9832C14.8457 34.9382 14.4708 34.9107 14.0959 34.8806C15.6057 34.8781 17.113 35.0408 18.6051 35.291C20.0972 35.5463 21.5665 35.9041 23.0206 36.312C23.7476 36.5172 24.4696 36.7324 25.189 36.9626C25.9085 37.1928 26.6229 37.4406 27.3347 37.6933C28.7533 38.2038 30.1593 38.7343 31.5855 39.1873C31.9427 39.2949 32.2974 39.415 32.6596 39.5101L33.1992 39.6602L33.7413 39.7928L34.0124 39.8579L34.286 39.9129L34.8332 40.023L35.3829 40.1081L35.659 40.1507L35.9351 40.1807L36.4874 40.2408L37.0422 40.2708C37.1359 40.2758 37.2271 40.2808 37.3208 40.2833L37.5995 40.2808L38.1543 40.2758C38.894 40.2383 39.6286 40.1407 40.3532 39.983C41.0802 39.8304 41.7845 39.5901 42.4735 39.3124C42.8206 39.1772 43.1524 39.0121 43.4868 38.8494L43.9757 38.5817C44.1404 38.4966 44.2924 38.389 44.4545 38.2939L44.6926 38.1488L44.9232 37.9911C45.0752 37.8835 45.2348 37.7859 45.3792 37.6683L45.8225 37.328L46.2455 36.9626C46.3165 36.9026 46.3849 36.84 46.4507 36.7749L46.6509 36.5798L46.851 36.3846L47.041 36.1794L47.2335 35.9742L47.3298 35.8716L47.4184 35.764L47.7883 35.3336Z" fill="#1B1B1B"/>
</g>
</g>
<g opacity="0.2">
<g opacity="0.2">
<path opacity="0.2" d="M20.9332 41.0064C20.3353 40.4584 19.6792 39.9829 18.9826 39.5801C18.291 39.1697 17.5589 38.8344 16.809 38.5391C16.6241 38.459 16.4341 38.3964 16.2441 38.3289C16.0541 38.2638 15.8666 38.1888 15.6767 38.1262L15.0991 37.951L14.8103 37.8634L14.519 37.7909L13.9363 37.6407C13.7412 37.5957 13.5436 37.5582 13.3461 37.5181C12.9534 37.428 12.5557 37.3805 12.158 37.3179C11.9604 37.2829 11.7602 37.2704 11.5601 37.2454C11.36 37.2253 11.1624 37.1928 10.9597 37.1853C10.5595 37.1628 10.1567 37.1278 9.75642 37.1303C8.95084 37.0952 8.14779 37.1553 7.34475 37.2128C5.74119 37.373 4.15284 37.7133 2.60248 38.2188C4.0743 37.5206 5.67026 37.0627 7.29915 36.8275C8.93057 36.6048 10.5949 36.6023 12.2314 36.825C13.8628 37.0677 15.4715 37.4981 16.9686 38.1863C17.3385 38.3639 17.7159 38.5266 18.0731 38.7318C18.4328 38.932 18.7824 39.1472 19.1194 39.3799C19.7881 39.8428 20.4139 40.3808 20.9332 41.0064Z" fill="#1B1B1B"/>
</g>
</g>
<g opacity="0.2">
<g opacity="0.2">
<path opacity="0.2" d="M5.28265 41.0063C5.48278 40.6259 5.75131 40.2756 6.05783 39.9603C6.36942 39.65 6.72154 39.3747 7.1066 39.1495C7.49165 38.9218 7.90964 38.7542 8.34536 38.629C8.78108 38.5114 9.23453 38.4539 9.68545 38.4564C10.5898 38.4564 11.4891 38.6916 12.2668 39.132C12.657 39.3497 13.0116 39.6225 13.3257 39.9302C13.6323 40.2455 13.8983 40.6059 14.0604 41.0063C13.5436 40.3156 12.8368 39.8277 12.0844 39.4773C11.3295 39.132 10.5037 38.9593 9.68292 38.9568C9.27253 38.9543 8.86214 39.0019 8.45936 39.0895C8.05657 39.177 7.66898 39.3222 7.28899 39.4948C6.91407 39.675 6.55435 39.8902 6.21996 40.1455C5.88557 40.3957 5.57651 40.6885 5.28265 41.0063Z" fill="#1B1B1B"/>
</g>
</g>
<g opacity="0.2">
<g opacity="0.2">
<path opacity="0.2" d="M31.1398 34.9231C31.8845 35.4561 32.6876 35.879 33.5311 36.1667C33.9542 36.3068 34.3823 36.4244 34.8206 36.4945C35.2563 36.5696 35.6971 36.6096 36.1404 36.6046C36.5812 36.6071 37.0245 36.5671 37.4602 36.492C37.8984 36.4219 38.3266 36.3043 38.7496 36.1667C39.5932 35.879 40.3962 35.4586 41.141 34.9256C40.5381 35.6137 39.7553 36.1592 38.894 36.5295C38.4659 36.7197 38.0124 36.8548 37.5514 36.9574C37.0878 37.0525 36.6166 37.1001 36.1429 37.1051C35.6692 37.1026 35.1955 37.055 34.7319 36.9574C34.2709 36.8548 33.8174 36.7197 33.3893 36.5295C32.5255 36.1567 31.7427 35.6112 31.1398 34.9231Z" fill="#1B1B1B"/>
</g>
</g>
<g opacity="0.2">
<g opacity="0.2">
<path opacity="0.2" d="M46.6788 41.0063C47.4058 40.2581 48.2671 39.63 49.1968 39.1271C49.6604 38.8718 50.1468 38.6591 50.6408 38.4664C51.1373 38.2813 51.649 38.1311 52.1683 38.0085C52.6876 37.8959 53.2171 37.8133 53.7465 37.7708C54.276 37.7333 54.8105 37.7207 55.3399 37.7558C56.3988 37.8183 57.4476 38.0235 58.4279 38.3914C57.3918 38.2262 56.3583 38.1336 55.3298 38.1461C54.8155 38.1561 54.3013 38.1787 53.7946 38.2437C53.2855 38.3013 52.7788 38.3814 52.2823 38.499C51.7833 38.6066 51.2893 38.7492 50.8054 38.9119C50.319 39.072 49.8453 39.2672 49.3741 39.4749C48.4368 39.9003 47.5426 40.4183 46.6788 41.0063Z" fill="#1B1B1B"/>
</g>
</g>
<path d="M50.3038 16.2878C50.3038 16.3103 50.3038 16.3328 50.3038 16.3528C50.281 17.1486 49.9973 17.8893 49.5312 18.4873C48.8523 19.3582 47.7858 19.9312 46.5673 19.9312H37.3893C37.1967 19.9312 37.0093 19.9687 36.8345 20.0413C36.685 20.1039 36.5432 20.194 36.4241 20.3041L33.3183 23.1468L32.5127 23.885C31.849 24.493 30.8205 24.493 30.1543 23.885L26.2429 20.3041C25.9795 20.0638 25.6349 19.9287 25.2778 19.9287H16.0998C14.1567 19.9287 12.6013 18.4773 12.386 16.6706C12.348 16.3428 12.3531 16.005 12.4063 15.6622L14.4962 2.53723C14.6887 1.32859 15.7426 0.437744 16.9813 0.437744H45.9745C47.2335 0.437744 48.3 1.35611 48.4672 2.58978L50.2709 15.7422C50.2962 15.9249 50.3089 16.1076 50.3038 16.2878Z" fill="white"/>
<path d="M31.3348 24.4005C30.894 24.4005 30.4558 24.2429 30.1138 23.9301L26.2024 20.3492C25.9491 20.1189 25.6223 19.9913 25.2778 19.9913H16.0998C14.172 19.9913 12.5481 18.5675 12.3252 16.6782C12.2847 16.3379 12.2923 15.995 12.348 15.6547L14.4354 2.52728C14.633 1.2811 15.7046 0.375244 16.9839 0.375244H45.9771C47.2615 0.375244 48.3609 1.32364 48.5332 2.58233L50.3343 15.7323C50.3596 15.92 50.3723 16.1076 50.3672 16.2878C50.3672 16.3103 50.3672 16.3329 50.3647 16.3554C50.3419 17.1436 50.0709 17.8943 49.5794 18.5224C48.8524 19.4558 47.7555 19.9888 46.5673 19.9888H37.3893C37.2069 19.9888 37.0296 20.0239 36.8599 20.0964C36.7155 20.1565 36.5812 20.2416 36.4672 20.3467L32.5559 23.9276C32.2139 24.2429 31.7731 24.4005 31.3348 24.4005ZM16.9839 0.500363C15.7679 0.500363 14.7496 1.36118 14.5621 2.5473L12.4747 15.6722C12.4215 16 12.4164 16.3354 12.4544 16.6632C12.6697 18.4874 14.2404 19.8637 16.1049 19.8637H25.2829C25.6578 19.8637 26.015 20.0013 26.2911 20.2541L30.2025 23.835C30.8383 24.418 31.8364 24.418 32.4748 23.8375L36.3862 20.2566C36.5128 20.1415 36.6572 20.0489 36.8168 19.9813C37.0017 19.9037 37.1968 19.8662 37.3969 19.8662H46.575C47.7251 19.8662 48.7865 19.3482 49.4882 18.4474C49.9619 17.8393 50.2254 17.1136 50.2456 16.3504C50.2482 16.3279 50.2456 16.3078 50.2456 16.2878V16.2853C50.2482 16.1127 50.2381 15.9325 50.2127 15.7498L48.4116 2.59735C48.2469 1.40122 47.2032 0.500363 45.9822 0.500363H16.9839V0.500363Z" fill="#1B1B1B"/>
<g opacity="0.35">
<path opacity="0.35" d="M48.8777 16.3255C49.1918 16.3255 49.4122 16.6358 49.3033 16.9261C49.1715 17.2739 48.9891 17.6017 48.7611 17.892C48.6471 18.0396 48.523 18.1773 48.3862 18.3049C47.9657 18.7053 47.4008 18.9255 46.8156 18.9255H38.3672C38.01 18.9255 37.6655 19.0581 37.4045 19.2983L37.3665 19.3334L36.5609 20.0716L33.4932 22.8817C33.3564 23.0069 33.2044 23.1044 33.0448 23.1795C32.6471 23.3622 32.1936 23.3872 31.7807 23.2546C31.5476 23.1795 31.3272 23.0569 31.1347 22.8817L27.2233 19.3008C26.9599 19.0606 26.6154 18.928 26.2582 18.928H17.0802C15.1371 18.928 13.5817 17.4766 13.3664 15.6699C13.3284 15.3446 13.3335 15.0043 13.3892 14.6614L15.1878 3.35572C15.3499 2.33976 16.1783 1.53399 17.2169 1.44891C17.2625 1.44641 17.3081 1.44141 17.3588 1.44141L15.6691 12.0615C15.6134 12.4043 15.6083 12.7421 15.6463 13.0699C15.8591 14.8766 17.4145 16.328 19.3601 16.328H28.5381C28.8978 16.328 29.2423 16.4606 29.5033 16.7009L33.4146 20.2818C33.7313 20.572 34.129 20.7247 34.5318 20.7372C34.9751 20.7522 35.4235 20.6021 35.7706 20.2818L36.8041 19.3359L39.6845 16.6984C39.9479 16.4581 40.2924 16.3255 40.6496 16.3255H48.8777Z" fill="#1B1B1B"/>
</g>
<path d="M31.3349 24.7735C30.8029 24.7735 30.2709 24.5833 29.8555 24.2029L25.9441 20.622C25.7617 20.4569 25.5261 20.3643 25.2804 20.3643H16.0998C13.9795 20.3643 12.1935 18.7978 11.9478 16.7208C11.9047 16.348 11.9123 15.9676 11.9706 15.5948L14.058 2.46734C14.2885 1.03848 15.5172 0 16.9839 0H45.9772C47.4515 0 48.7131 1.08853 48.9082 2.5324L50.7093 15.6824C50.7423 15.9176 50.7524 16.1478 50.7448 16.3655C50.6789 18.5701 48.8068 20.3643 46.5674 20.3643H37.3894C37.1411 20.3643 36.9055 20.4569 36.7257 20.622L32.8143 24.2029C32.3989 24.5833 31.8669 24.7735 31.3349 24.7735ZM16.9839 0.87583C15.958 0.87583 15.0967 1.60402 14.9371 2.60497L12.8496 15.7299C12.8015 16.0252 12.7964 16.3255 12.8294 16.6182C13.0244 18.2523 14.4304 19.486 16.1024 19.486H25.2804C25.7516 19.486 26.2025 19.6611 26.547 19.9764L30.4584 23.5573C30.9498 24.0077 31.72 24.0077 32.2139 23.5573L36.1253 19.9764C36.4698 19.6611 36.9207 19.486 37.3919 19.486H46.57C48.3331 19.486 49.81 18.0721 49.8607 16.3355C49.8607 16.333 49.8607 16.333 49.8607 16.3305C49.8683 16.1603 49.8581 15.9801 49.8328 15.795L48.0317 2.64501C47.8923 1.63405 47.0108 0.873327 45.9772 0.873327H16.9839V0.87583Z" fill="#1B1B1B"/>
<path d="M46.5698 27.7987H37.3918C37.0346 27.7987 36.6875 27.9339 36.4266 28.1716L35.6742 28.8623L33.4982 30.8541C33.2499 31.0819 32.9712 31.2645 32.6799 31.3972C32.2543 31.5948 31.7933 31.6924 31.3322 31.6924C30.5571 31.6899 29.7819 31.4122 29.1739 30.8541L26.248 28.1716C25.9845 27.9314 25.64 27.7987 25.2828 27.7987H16.0997C13.8046 27.7987 12.0516 25.7743 12.4088 23.5347L12.3885 16.6707C12.6013 18.4749 14.1567 19.9288 16.1023 19.9288H25.2803C25.6375 19.9288 25.9845 20.0614 26.2454 20.3041L30.1568 23.885C30.4887 24.1903 30.9066 24.3405 31.3322 24.343C31.7553 24.343 32.1809 24.1928 32.5153 23.8875L32.6799 23.7374L35.6742 20.9973L36.4266 20.3092C36.6901 20.0689 37.0346 19.9338 37.3918 19.9338H46.5698C48.6217 19.9338 50.2481 18.3123 50.3038 16.3579L50.2709 23.6198C50.5749 25.8294 48.832 27.7987 46.5698 27.7987Z" fill="#1B1B1B"/>
<g opacity="0.55">
<path opacity="0.55" d="M46.5698 27.7989H46.5267C47.991 27.1583 48.9435 25.6144 48.7105 23.9303L48.7307 19.2458C49.6605 18.5927 50.2685 17.5317 50.3039 16.3506L50.271 23.6125C50.575 25.8296 48.8321 27.7989 46.5698 27.7989Z" fill="white"/>
</g>
<g opacity="0.25">
<path opacity="0.25" d="M35.9681 22.5363V28.4694L33.7921 30.4613C33.5438 30.689 33.2677 30.8717 32.9738 31.0043V25.3139C32.9738 25.0387 33.0903 24.7734 33.2955 24.5857L35.6717 22.4087C35.7857 22.3061 35.9681 22.3836 35.9681 22.5363Z" fill="white"/>
</g>
<path d="M31.3348 32.1229C30.4482 32.1229 29.5615 31.8076 28.8699 31.1745L25.9415 28.4945C25.7591 28.3293 25.5235 28.2367 25.2778 28.2367H16.0997C14.8762 28.2367 13.7185 27.7087 12.923 26.7903C12.1352 25.882 11.7881 24.6833 11.9654 23.5022L11.9452 16.6733C11.9452 16.4405 12.1276 16.2479 12.3632 16.2353C12.5987 16.2203 12.8014 16.3905 12.8293 16.6207C13.0243 18.2573 14.4303 19.4909 16.1023 19.4909H25.2803C25.7515 19.4909 26.2024 19.6661 26.5469 19.9814L30.4583 23.5623C30.9498 24.0127 31.7199 24.0127 32.2139 23.5623L36.1252 19.9814C36.4698 19.6661 36.9207 19.4909 37.3919 19.4909H46.5699C48.3331 19.4909 49.81 18.0771 49.8606 16.3404C49.8682 16.1027 50.0633 15.915 50.304 15.915C50.423 15.915 50.5345 15.9626 50.6181 16.0452C50.7017 16.1277 50.7473 16.2403 50.7473 16.3555L50.7143 23.5873C50.8663 24.7584 50.5041 25.937 49.7162 26.8279C48.9233 27.7262 47.7757 28.2392 46.5674 28.2392H37.3893C37.1411 28.2392 36.9055 28.3293 36.7256 28.497L33.7972 31.177C33.1081 31.8076 32.2215 32.1229 31.3348 32.1229ZM12.8369 18.8228L12.8521 23.5348C12.8521 23.5573 12.8495 23.5823 12.847 23.6048C12.6975 24.5457 12.9711 25.4991 13.5969 26.2223C14.2226 26.9455 15.1371 27.3609 16.0997 27.3609H25.2778C25.749 27.3609 26.1999 27.536 26.5444 27.8513L29.4729 30.5314C30.5166 31.4873 32.1505 31.4873 33.1942 30.5314L36.1227 27.8513C36.4672 27.536 36.9182 27.3609 37.3893 27.3609H46.5674C47.5174 27.3609 48.4217 26.9555 49.0475 26.2473C49.6732 25.5392 49.9594 24.6008 49.8302 23.6699C49.8277 23.6499 49.8252 23.6298 49.8252 23.6098L49.848 18.7803C49.0779 19.7437 47.8847 20.3643 46.5674 20.3643H37.3893C37.1411 20.3643 36.9055 20.4568 36.7256 20.622L32.8143 24.2029C31.9833 24.9636 30.6838 24.9636 29.8554 24.2029L25.944 20.622C25.7616 20.4568 25.526 20.3643 25.2803 20.3643H16.0997C14.79 20.3668 13.607 19.7687 12.8369 18.8228Z" fill="#1B1B1B"/>
<path d="M31.4159 14.0383C43.7174 9.67922 39.9859 -0.122553 31.4159 5.27255C22.8205 0.0701291 19.1144 9.67922 31.4159 14.0383Z" fill="#E07153"/>
<g opacity="0.35">
<path opacity="0.35" d="M35.2563 12.0688C34.1366 13.1248 32.5508 14.1383 30.4355 14.9891C29.8655 15.2193 29.222 15.2168 28.652 14.9866C20.4062 11.6835 20.239 5.94053 24.0542 5.14478C23.0307 7.3894 24.9737 11.3381 31.6945 13.7179C33.0777 13.2299 34.2607 12.6694 35.2563 12.0688Z" fill="#1B1B1B"/>
</g>
<g opacity="0.35">
<path opacity="0.35" d="M39.2868 6.97161C39.074 9.22623 36.756 12.1465 31.4134 14.0408C23.9655 11.4008 22.3873 6.83648 24.2087 4.79956C24.2847 7.05919 26.5799 10.0745 32.1049 12.0314C35.953 10.6676 38.2329 8.77081 39.2868 6.97161Z" fill="#1B1B1B"/>
</g>
<g opacity="0.55">
<path opacity="0.55" d="M37.445 10.4699C40.2797 6.44361 36.9003 2.62749 31.0688 5.97817C30.7623 6.15334 30.3873 6.15834 30.0757 5.98568C27.2816 4.44422 25.0523 4.49927 23.7983 5.41514C24.6723 3.5884 27.5476 2.93278 31.4133 5.2725C38.0403 1.10354 41.7743 6.01321 37.445 10.4699Z" fill="white"/>
</g>
<g opacity="0.35">
<path opacity="0.35" d="M31.3297 26.4926V31.69C30.5546 31.6875 29.7794 31.4097 29.1714 30.8517L26.2455 28.1691C25.982 27.9289 25.6375 27.7963 25.2803 27.7963H16.0997C14.2124 27.7963 12.6899 26.4275 12.4087 24.6933C12.3479 24.323 12.3454 23.9351 12.4087 23.5398C12.4087 23.5373 12.4087 23.5348 12.4087 23.5323L12.391 17.9495C12.619 19.7412 14.1668 21.1775 16.0997 21.1775H25.2778C25.6349 21.1775 25.982 21.3101 26.2429 21.5529L30.1543 25.1338C30.2962 25.2639 30.4532 25.3665 30.6204 25.4391C31.046 25.6292 31.3297 26.0346 31.3297 26.4926Z" fill="#1B1B1B"/>
</g>
<path d="M26.6331 3.77368C27.0257 4.09649 27.3348 4.51188 27.5602 4.96731C27.7857 5.42525 27.9275 5.91822 28.0314 6.41369C28.2366 7.40713 28.2872 8.42059 28.5406 9.36899C28.6647 9.84194 28.842 10.2924 29.0928 10.7028C29.3411 11.1156 29.6501 11.4885 29.9997 11.8213C30.7014 12.4895 31.55 12.9899 32.4544 13.3678L32.1352 14.0484C31.2004 13.5855 30.3088 12.9874 29.5919 12.2117C29.2347 11.8238 28.9206 11.3959 28.6774 10.928C28.4291 10.4625 28.267 9.95455 28.1707 9.45157C27.9706 8.43811 27.9858 7.42965 27.8465 6.44622C27.7755 5.95575 27.6666 5.46779 27.4766 5.00735C27.2816 4.54942 27.0029 4.11901 26.6331 3.77368Z" fill="white"/>
<path d="M30.2861 4.50921C30.1974 5.40757 30.1746 6.30342 30.4203 7.13671C30.6661 7.965 31.2006 8.7107 31.8972 9.28125C32.5939 9.85429 33.4324 10.2647 34.3216 10.5049C35.2133 10.7451 36.1506 10.8302 37.0854 10.8252C36.1532 10.8928 35.2083 10.8728 34.2785 10.6876C33.3514 10.4999 32.4495 10.1371 31.6642 9.57653C31.2741 9.29626 30.9143 8.96595 30.6103 8.58559C30.3038 8.20773 30.0581 7.77482 29.8807 7.31438C29.7085 6.85394 29.6147 6.36848 29.5666 5.89053C29.5185 5.41007 29.5159 4.93212 29.5311 4.46167L30.2861 4.50921Z" fill="white"/>
<path d="M33.5413 4.19409C33.3108 4.97483 33.3057 5.80813 33.521 6.57385C33.6274 6.95422 33.7895 7.32457 34.0353 7.61484C34.2759 7.90762 34.6154 8.0903 34.9827 8.13784C35.35 8.18789 35.7325 8.12283 36.0897 7.9927C36.4495 7.86258 36.7712 7.65989 37.0878 7.42216C37.4045 7.18694 37.711 6.92168 38.0378 6.66144C38.3671 6.40119 38.7167 6.14845 39.1372 5.94576L39.4336 6.63641C39.269 6.71148 39.0992 6.77655 38.932 6.87664C38.7648 6.97173 38.6002 7.07683 38.433 7.18944C38.1011 7.41215 37.7693 7.65989 37.4096 7.8876C36.7053 8.34804 35.806 8.69587 34.9092 8.50819C34.4659 8.4156 34.0555 8.14785 33.8047 7.78751C33.5489 7.42967 33.4146 7.02178 33.3336 6.61639C33.174 5.80312 33.2525 4.95481 33.5413 4.19409Z" fill="white"/>
<path d="M24.4975 4.37939C24.9054 4.65716 25.2803 5.00749 25.5488 5.43539C25.6806 5.6506 25.787 5.88582 25.8478 6.13356C25.9086 6.38129 25.9162 6.63904 25.8858 6.88427C25.8199 7.37473 25.5995 7.81515 25.3107 8.183C25.0194 8.55335 24.6546 8.84112 24.2746 9.09136C24.6166 8.79358 24.9333 8.45826 25.1536 8.0779C25.3766 7.70004 25.5108 7.27214 25.5058 6.85924C25.5032 6.44635 25.3436 6.06849 25.0827 5.7607C24.8218 5.45041 24.4798 5.21018 24.1049 5.0225L24.4975 4.37939Z" fill="white"/>
<path d="M31.4159 14.4762C31.3653 14.4762 31.3146 14.4687 31.2665 14.4512C25.6274 12.4543 23.3525 9.36386 23.1017 7.13925C22.9498 5.78047 23.4817 4.60936 24.566 3.92871C26.2025 2.90274 28.7459 3.21304 31.4109 4.757C34.0809 3.14297 36.5508 2.80014 38.2203 3.82111C39.3222 4.49425 39.872 5.67537 39.725 7.06168C39.4844 9.32132 37.2146 12.4468 31.5654 14.4487C31.5173 14.4687 31.4666 14.4762 31.4159 14.4762ZM26.856 4.20147C26.1569 4.20147 25.5413 4.35662 25.0422 4.66941C24.2544 5.16238 23.8693 6.0282 23.9833 7.04416C24.2012 8.98851 26.2734 11.7136 31.4159 13.5754C36.5686 11.7111 38.6332 8.94847 38.8435 6.9741C38.9549 5.93561 38.5572 5.05978 37.7541 4.56932C36.3583 3.71601 34.0784 4.11639 31.654 5.64284C31.5122 5.73292 31.3298 5.73542 31.1854 5.64784C29.6097 4.69444 28.1024 4.20147 26.856 4.20147Z" fill="#1B1B1B"/>
<g opacity="0.25">
<path opacity="0.25" d="M37.1511 6.09578C37.3437 6.24592 37.521 6.4311 37.5945 6.66382C37.6705 6.89403 37.6198 7.1768 37.4247 7.32444C37.2677 7.44205 37.0574 7.45206 36.8598 7.44205C36.2569 7.40701 35.6793 7.20432 35.1169 6.98912C34.9117 6.90905 34.6862 6.81145 34.5925 6.61377C34.5114 6.44611 34.5494 6.23591 34.6533 6.08077C34.7572 5.92562 34.9193 5.81552 35.089 5.73294C35.4285 5.57029 35.8135 5.51023 36.1859 5.55527C36.5735 5.60282 36.8547 5.86056 37.1511 6.09578Z" fill="white"/>
</g>
<g opacity="0.25">
<path opacity="0.25" d="M32.6774 6.04323C32.5634 6.09578 32.452 6.15834 32.3785 6.25593C32.2594 6.41357 32.267 6.64128 32.3684 6.80894C32.4697 6.97659 32.6571 7.08419 32.8497 7.12423C33.0447 7.16176 33.2474 7.13424 33.4374 7.07668C33.5717 7.03665 33.7034 6.97659 33.8022 6.879C33.9314 6.74638 33.9821 6.5512 33.9567 6.36853C33.8529 5.63785 33.1891 5.81051 32.6774 6.04323Z" fill="white"/>
</g>
<path d="M49.8226 10.1572C50.3014 10.5601 50.4204 11.4009 49.9239 11.7862C49.6453 12.0014 49.2552 12.024 48.9157 11.9289C48.9031 11.9264 48.8904 11.9214 48.8777 11.9164C48.5535 11.8213 48.2672 11.6311 47.9835 11.4459L48.0266 9.78683C48.3078 9.74929 48.6041 9.73928 48.8904 9.77682C49.2324 9.81936 49.5592 9.93447 49.8226 10.1572Z" fill="white"/>
<path d="M48.0088 9.66166C48.4901 9.4965 49.0474 9.44395 49.5997 9.64414C49.7364 9.69669 49.8707 9.76425 49.9923 9.85184C50.0531 9.89188 50.1164 9.94943 50.1747 10.002C50.2304 10.0595 50.2836 10.1196 50.3292 10.1847C50.5141 10.4399 50.6155 10.7427 50.6231 11.063C50.6256 11.2231 50.6003 11.3883 50.542 11.5484C50.4812 11.7086 50.3799 11.8612 50.2507 11.9839C49.9847 12.2316 49.6351 12.3167 49.3311 12.3017C49.1766 12.2967 49.0297 12.2666 48.8904 12.2191C48.751 12.1715 48.6269 12.109 48.5104 12.0389C48.2799 11.8938 48.0899 11.7286 47.9176 11.5459C47.8695 11.4934 47.872 11.4133 47.9227 11.3633C47.9607 11.3282 48.0114 11.3207 48.057 11.3357C48.2925 11.4208 48.5104 11.5234 48.7232 11.581C48.936 11.6485 49.1335 11.6686 49.3159 11.6485C49.4983 11.626 49.6478 11.556 49.7314 11.4584C49.7744 11.4108 49.8074 11.3558 49.8302 11.2907C49.853 11.2231 49.8606 11.1456 49.8631 11.0655C49.8631 10.9028 49.8124 10.7252 49.7238 10.58C49.6782 10.505 49.6301 10.4474 49.5642 10.3848C49.4958 10.3223 49.4198 10.2647 49.3311 10.2172C48.9866 10.0145 48.5231 9.94192 48.0443 9.90439H48.0417C47.9708 9.89938 47.9176 9.83682 47.9227 9.76676C47.9278 9.72171 47.9632 9.67917 48.0088 9.66166Z" fill="#1B1B1B"/>
<path d="M40.1023 20.9998C39.7527 21.5178 38.9218 21.7305 38.4785 21.29C38.2303 21.0423 38.1619 20.6619 38.2151 20.3166C38.2176 20.3041 38.2176 20.2916 38.2227 20.2791C38.2809 19.9513 38.438 19.646 38.5925 19.3482L40.267 19.1956C40.3379 19.4683 40.3835 19.7586 40.3784 20.0414C40.3708 20.3842 40.2923 20.717 40.1023 20.9998Z" fill="white"/>
<path d="M40.3861 19.1656C40.6065 19.6186 40.7256 20.1591 40.5888 20.7246C40.5533 20.8647 40.5001 21.0024 40.4267 21.1325C40.3937 21.1976 40.3431 21.2651 40.2975 21.3302C40.2468 21.3902 40.1936 21.4503 40.1328 21.5029C39.8972 21.7131 39.6059 21.8482 39.2842 21.8932C39.1246 21.9157 38.9549 21.9082 38.7852 21.8707C38.6155 21.8307 38.4508 21.7481 38.314 21.6355C38.0354 21.4053 37.9062 21.0699 37.8859 20.7697C37.8733 20.617 37.8859 20.4694 37.9163 20.3267C37.9492 20.1841 37.9974 20.0565 38.0531 19.9339C38.1722 19.6911 38.3166 19.4834 38.4787 19.2958C38.5243 19.2407 38.6079 19.2357 38.6611 19.2807C38.6991 19.3133 38.7143 19.3633 38.7041 19.4084C38.6459 19.6486 38.5699 19.8738 38.5344 20.0915C38.4913 20.3067 38.4939 20.5044 38.5369 20.6821C38.58 20.8572 38.6687 20.9974 38.7751 21.0674C38.8282 21.105 38.889 21.13 38.9574 21.145C39.0284 21.16 39.1069 21.16 39.188 21.1525C39.3501 21.1325 39.5249 21.0624 39.6591 20.9598C39.73 20.9073 39.7832 20.8522 39.8364 20.7797C39.8896 20.7046 39.9403 20.622 39.9783 20.5319C40.1404 20.1691 40.1607 19.7061 40.1429 19.2332V19.2307C40.1404 19.1606 40.1961 19.1006 40.2671 19.0981C40.3177 19.0906 40.3659 19.1206 40.3861 19.1656Z" fill="#1B1B1B"/>
<path d="M14.6229 11.1131C14.3392 11.2982 14.0529 11.4884 13.7286 11.5835C13.716 11.5885 13.7033 11.591 13.6906 11.596C13.3512 11.6911 12.9585 11.6661 12.6824 11.4534C12.6621 11.4359 12.6418 11.4208 12.6241 11.4033C12.196 11.0004 12.3227 10.2122 12.7837 9.82684C13.0472 9.60413 13.374 9.48902 13.716 9.44648C13.906 9.42146 14.1061 9.41645 14.2986 9.42646C14.3924 9.43397 14.4861 9.44148 14.5773 9.45399L14.6229 11.1131Z" fill="white"/>
<path d="M14.5621 9.57925C14.0833 9.61679 13.6197 9.68936 13.2752 9.89205C13.189 9.9396 13.1105 9.99715 13.0421 10.0597C12.9737 10.1223 12.9256 10.1798 12.8825 10.2549C12.7938 10.4 12.7432 10.5777 12.7432 10.7404C12.7457 10.8204 12.7533 10.898 12.7761 10.9656C12.8014 11.0306 12.8318 11.0882 12.8749 11.1332C12.9585 11.2308 13.108 11.3009 13.2904 11.3234C13.4728 11.3434 13.6703 11.3234 13.8831 11.2558C14.0959 11.1958 14.3138 11.0957 14.5494 11.0106C14.6178 10.9856 14.6912 11.0206 14.7166 11.0857C14.7343 11.1332 14.7216 11.1833 14.6887 11.2183C14.5165 11.3985 14.3265 11.5661 14.0959 11.7113C13.9794 11.7788 13.8553 11.8414 13.7159 11.8915C13.5766 11.939 13.4297 11.9665 13.2752 11.974C12.9712 11.989 12.6216 11.9015 12.3556 11.6562C12.2264 11.5336 12.1251 11.381 12.0643 11.2208C12.006 11.0607 11.9807 10.8955 11.9832 10.7354C11.9908 10.415 12.0921 10.1123 12.2771 9.85702C12.3227 9.79196 12.3759 9.7344 12.4316 9.67434C12.4899 9.62179 12.5532 9.56424 12.614 9.5242C12.7356 9.43662 12.8698 9.36655 13.0066 9.3165C13.5589 9.11631 14.1162 9.16886 14.5975 9.33402C14.6659 9.35654 14.7014 9.42911 14.6786 9.49667C14.6608 9.54672 14.6152 9.57925 14.5671 9.58176L14.5621 9.57925Z" fill="#1B1B1B"/>
<g opacity="0.6">
<g opacity="0.6">
<path opacity="0.6" d="M20.001 10.2795C19.8262 10.6273 19.6945 10.9877 19.7021 11.308C19.7046 11.4681 19.7401 11.6183 19.8034 11.7334C19.8364 11.7934 19.8718 11.836 19.9073 11.8835C19.9428 11.9286 19.9757 11.9761 20.0162 12.0186C20.0948 12.1012 20.186 12.1613 20.2923 12.1713C20.3987 12.1838 20.533 12.1488 20.6419 12.0712C20.7559 11.9911 20.8522 11.8635 20.9104 11.7134C20.9763 11.5557 21.0092 11.3855 21.0092 11.2054V11.2029C21.0092 11.1328 21.0675 11.0753 21.1359 11.0753C21.1942 11.0753 21.2423 11.1128 21.2575 11.1628C21.3233 11.3655 21.336 11.5882 21.3081 11.8059C21.2777 12.0312 21.1866 12.2589 21.0219 12.4541C20.8547 12.6467 20.6115 12.7869 20.3278 12.8244C20.0416 12.8644 19.7426 12.7693 19.5197 12.6092C19.2892 12.454 19.1397 12.1963 19.0967 11.9386C19.0486 11.6833 19.0739 11.4356 19.1423 11.2154C19.2841 10.7675 19.5856 10.4472 19.8997 10.2019C19.9276 10.1794 19.9681 10.1844 19.9909 10.2119C20.0112 10.2295 20.0137 10.257 20.001 10.2795Z" fill="#1B1B1B"/>
</g>
<g opacity="0.6">
<path opacity="0.6" d="M41.9111 6.59108C42.1797 6.9314 42.4837 7.23418 42.8181 7.38182C42.9853 7.45689 43.1576 7.49443 43.3121 7.48942C43.3906 7.48692 43.4565 7.47191 43.5249 7.45689C43.5933 7.44188 43.6592 7.42687 43.725 7.40434C43.8517 7.3568 43.9632 7.28423 44.024 7.17163C44.0873 7.06152 44.1076 6.90387 44.0746 6.75123C44.0392 6.59608 43.948 6.43843 43.8162 6.31081C43.6794 6.17319 43.5173 6.06558 43.3298 5.98551C43.264 5.95798 43.2361 5.88291 43.2614 5.82035C43.2842 5.7678 43.34 5.73778 43.3957 5.74528C43.6288 5.77531 43.8618 5.8654 44.0696 5.99051C44.2824 6.12314 44.4698 6.31582 44.5889 6.56355C44.7054 6.81379 44.7358 7.11157 44.6472 7.40434C44.5585 7.69962 44.333 7.94485 44.0746 8.08999C43.8162 8.24263 43.497 8.27517 43.2184 8.2051C42.9397 8.14004 42.7015 8.00741 42.509 7.84226C42.1163 7.50694 41.9213 7.06653 41.8047 6.64363C41.7946 6.6086 41.8149 6.57356 41.8503 6.56606C41.8681 6.56105 41.8934 6.57106 41.9111 6.59108Z" fill="#1B1B1B"/>
</g>
<g opacity="0.3">
<path opacity="0.3" d="M20.9206 12.1665C20.0112 14.9692 17.3209 12.6395 19.4057 10.9229C19.4032 10.9204 18.9472 13.0273 20.9206 12.1665Z" fill="#1B1B1B"/>
</g>
<g opacity="0.35">
<path opacity="0.35" d="M44.523 7.04883C44.8878 10.0392 41.3261 9.80394 42.1063 7.04883C42.9524 8.12485 43.7656 8.31503 44.523 7.04883Z" fill="#1B1B1B"/>
</g>
<g opacity="0.6">
<path opacity="0.6" d="M35.7909 14.3084C36.0594 14.6487 36.3634 14.9515 36.6978 15.0991C36.865 15.1742 37.0373 15.2117 37.1918 15.2067C37.2703 15.2042 37.3362 15.1892 37.4046 15.1742C37.473 15.1592 37.5389 15.1442 37.6047 15.1216C37.7314 15.0741 37.8428 15.0015 37.9036 14.8889C37.967 14.7788 37.9872 14.6212 37.9543 14.4685C37.9188 14.3134 37.8276 14.1557 37.6959 14.0281C37.5591 13.8905 37.397 13.7829 37.2095 13.7028C37.1437 13.6753 37.1158 13.6002 37.1411 13.5376C37.1639 13.4851 37.2197 13.4551 37.2754 13.4626C37.5085 13.4926 37.7415 13.5827 37.9492 13.7078C38.162 13.8404 38.3495 14.0331 38.4686 14.2808C38.5851 14.5311 38.6155 14.8289 38.5268 15.1216C38.4382 15.4169 38.2127 15.6621 37.9543 15.8073C37.6959 15.9599 37.3767 15.9925 37.0981 15.9224C36.8194 15.8598 36.5813 15.7247 36.3887 15.5595C35.9961 15.2242 35.801 14.7838 35.6845 14.3609C35.6744 14.3259 35.6946 14.2908 35.7301 14.2833C35.7478 14.2783 35.7757 14.2883 35.7909 14.3084Z" fill="#1B1B1B"/>
</g>
<g opacity="0.35">
<path opacity="0.35" d="M38.4026 14.7639C38.7673 17.7542 35.2057 17.519 35.9859 14.7639C36.832 15.8399 37.6451 16.0326 38.4026 14.7639Z" fill="#1B1B1B"/>
</g>
</g>
<g opacity="0.35">
<path opacity="0.35" d="M14.6229 11.1129C14.3392 11.2981 14.0529 11.4883 13.7286 11.5834C13.716 11.5884 13.7033 11.5909 13.6907 11.5959C13.3512 11.691 12.9585 11.6659 12.6824 11.4532C12.6621 11.4357 12.6419 11.4207 12.6241 11.4032C13.8325 11.2556 14.3898 10.5974 14.2986 9.42633L14.3012 9.42383C14.3949 9.43134 14.4886 9.43884 14.5798 9.45135L14.6229 11.1129Z" fill="#1B1B1B"/>
</g>
<g opacity="0.35">
<path opacity="0.35" d="M58.9827 49.144C59.0055 50.0199 58.2835 50.7506 57.369 50.7731H57.3488L20.3074 51.3036L13.3435 51.4037L2.4074 51.5589C1.86275 51.5664 1.4169 51.1535 1.4017 50.6355C1.3941 50.3752 1.49796 50.135 1.67022 49.9598C1.84248 49.7846 2.08314 49.6695 2.35674 49.6595L13.2574 49.2491L20.0693 48.9938L57.2652 47.5975C58.1847 47.5699 58.9574 48.2606 58.9827 49.144Z" fill="#1B1B1B"/>
</g>
<path d="M58.9827 47.7525C59.0055 48.6284 58.2835 49.3591 57.369 49.3816H57.3488L20.3074 49.9121L13.3435 50.0122L2.4074 50.1674C1.86275 50.1749 1.4169 49.762 1.4017 49.244C1.3941 48.9837 1.49796 48.7435 1.67022 48.5683C1.84248 48.3931 2.08314 48.278 2.35674 48.268L13.2574 47.8576L20.0693 47.6024L57.2652 46.206C58.1847 46.176 58.9574 46.8692 58.9827 47.7525Z" fill="#FFD78F"/>
<path d="M2.39475 50.2324C1.8273 50.2324 1.35611 49.7945 1.34091 49.249C1.33331 48.9787 1.43464 48.7235 1.62717 48.5283C1.8197 48.3331 2.07809 48.2205 2.35675 48.2105L57.2652 46.1486C57.7364 46.1286 58.1848 46.2937 58.5268 46.609C58.8536 46.9118 59.0385 47.3147 59.0512 47.7501C59.0638 48.1905 58.8941 48.6109 58.5775 48.9312C58.2608 49.2515 57.8352 49.4342 57.3767 49.4442H57.3564L20.3151 49.9747L2.41502 50.2324C2.40235 50.2324 2.39982 50.2324 2.39475 50.2324ZM57.3311 46.2712C57.3108 46.2712 57.288 46.2712 57.2678 46.2712L20.0719 47.67L2.35929 48.3356C2.11356 48.3456 1.88557 48.4432 1.71584 48.6159C1.54864 48.7861 1.45998 49.0113 1.46504 49.2465C1.47771 49.7244 1.89316 50.1098 2.39222 50.1098C2.39728 50.1098 2.39982 50.1098 2.40488 50.1098L20.3049 49.852L57.3666 49.3215C57.7921 49.309 58.1873 49.1414 58.4812 48.8461C58.7751 48.5508 58.9296 48.163 58.9195 47.7576C58.9093 47.3572 58.7371 46.9819 58.4356 46.7041C58.1367 46.4239 57.7466 46.2712 57.3311 46.2712Z" fill="#1B1B1B"/>
<path d="M41.0371 49.6169L39.5627 49.6569C40.1555 48.696 40.0744 47.7025 39.4816 46.6841L40.9561 46.644C41.4906 47.6225 41.5185 48.6134 41.0371 49.6169Z" fill="#1B1B1B"/>
<path d="M44.3507 49.5292L42.324 49.5843C42.9168 48.6234 42.8358 47.6299 42.243 46.6114L44.2696 46.5564C44.8067 47.5348 44.832 48.5233 44.3507 49.5292Z" fill="#1B1B1B"/>
<g opacity="0.55">
<path opacity="0.55" d="M58.9828 47.7528C58.9854 47.8253 58.9803 47.9004 58.9727 47.973C58.694 47.43 58.0987 47.0621 57.4249 47.0897L20.2289 48.486L13.4144 48.7387L2.5163 49.1466C2.24271 49.1566 2.00205 49.2692 1.82979 49.4468C1.73099 49.5469 1.65499 49.6695 1.61193 49.8022C1.4878 49.6495 1.40927 49.4568 1.4042 49.2467C1.3966 48.9864 1.50046 48.7487 1.67273 48.571C1.84499 48.3959 2.08565 48.2808 2.35924 48.2708L13.2574 47.8604L20.0693 47.6051L57.2653 46.2089C58.1874 46.1763 58.96 46.8695 58.9828 47.7528Z" fill="white"/>
</g>
<path d="M2.39223 50.6078C1.61958 50.6078 0.9812 50.0072 0.960934 49.259C0.940668 48.5033 1.55878 47.8627 2.34156 47.8351L57.2501 45.7756C57.8226 45.7531 58.3698 45.9533 58.7852 46.3362C59.1855 46.7065 59.4135 47.207 59.4287 47.7425C59.4439 48.2781 59.2412 48.7911 58.8612 49.1814C58.4686 49.5868 57.934 49.8145 57.359 49.822L2.41756 50.6078C2.40489 50.6078 2.39983 50.6078 2.39223 50.6078ZM57.3311 46.6465C57.3134 46.6465 57.2982 46.6465 57.2805 46.6465L2.37196 48.706C2.07304 48.716 1.83744 48.9537 1.84504 49.2315C1.85264 49.5067 2.09584 49.7295 2.39223 49.7295C2.39476 49.7295 2.39729 49.7295 2.39983 49.7295L57.3413 48.9462C57.6782 48.9412 57.9898 48.8086 58.2178 48.5733C58.4331 48.3531 58.5471 48.0654 58.5395 47.7651C58.5319 47.4648 58.4027 47.1845 58.1747 46.9743C57.9467 46.7616 57.6478 46.6465 57.3311 46.6465Z" fill="#1B1B1B"/>
<g opacity="0.35">
<path opacity="0.35" d="M58.9625 55.3049C58.9599 56.1833 58.2152 56.8889 57.3032 56.8889H57.2829L20.2416 56.3684L13.2776 56.2708L2.34155 56.1157C1.79943 56.1082 1.36371 55.6828 1.36371 55.1648C1.36371 54.9045 1.47264 54.6693 1.64997 54.4967C1.8273 54.3265 2.07302 54.2189 2.34408 54.2164L13.2523 54.1163L20.0693 54.0537L57.2905 53.7159C58.2126 53.7059 58.965 54.4216 58.9625 55.3049Z" fill="#1B1B1B"/>
</g>
<path d="M59.0031 53.9136C59.0006 54.7919 58.2558 55.4976 57.3439 55.4976H57.3236L20.2821 54.9771L13.3182 54.8795L2.38208 54.7243C1.83996 54.7168 1.40424 54.2914 1.40424 53.7734C1.40424 53.5132 1.51317 53.278 1.6905 53.1053C1.86782 52.9351 2.11355 52.8275 2.38461 52.825L13.2929 52.7249L20.1099 52.6624L57.3312 52.3246C58.2533 52.3146 59.0057 53.0302 59.0031 53.9136Z" fill="#FFD78F"/>
<path d="M41.0119 55.2673L39.535 55.2648C40.1556 54.3214 40.1024 53.3255 39.54 52.292L41.0169 52.2945C41.5236 53.2854 41.521 54.2764 41.0119 55.2673Z" fill="#1B1B1B"/>
<path d="M44.3279 55.2722L42.3013 55.2697C42.9219 54.3263 42.8687 53.3304 42.3063 52.2969L44.3329 52.2994C44.8396 53.2903 44.8371 54.2813 44.3279 55.2722Z" fill="#1B1B1B"/>
<g opacity="0.55">
<path opacity="0.55" d="M59.0032 53.9112C59.0032 53.9862 58.9981 54.0588 58.9855 54.1289C58.722 53.5758 58.1394 53.1955 57.463 53.2005L20.2417 53.5383L13.4247 53.6009L2.51893 53.701C2.24534 53.7035 2.00215 53.8111 1.82482 53.9812C1.72349 54.0788 1.64496 54.1964 1.59683 54.3291C1.47523 54.1714 1.4043 53.9787 1.4043 53.7685C1.4043 53.5083 1.51576 53.273 1.69309 53.1004C1.87042 52.9277 2.11615 52.8226 2.3872 52.8201L13.2929 52.72L20.1099 52.6574L57.3313 52.3196C58.2534 52.3146 59.0057 53.0278 59.0032 53.9112Z" fill="white"/>
</g>
<path d="M57.3489 55.9355C57.3388 55.9355 57.3286 55.9355 57.316 55.9355L2.37451 55.1598C1.59426 55.1498 0.958412 54.5242 0.960945 53.7685C0.963478 53.0127 1.59933 52.3897 2.38211 52.3821L57.3286 51.8817C57.9037 51.8767 58.4433 52.0919 58.846 52.4872C59.2362 52.8701 59.449 53.3756 59.449 53.9111C59.449 54.4466 59.2311 54.9521 58.841 55.3324C58.4407 55.7228 57.9113 55.9355 57.3489 55.9355ZM57.3286 55.0597C57.663 55.0597 57.9797 54.9421 58.2153 54.7118C58.4357 54.4966 58.5598 54.2139 58.5598 53.9111C58.5598 53.6108 58.4382 53.3255 58.2203 53.1103C57.9898 52.8826 57.6807 52.76 57.3489 52.76C57.3438 52.76 57.3413 52.76 57.3362 52.76L2.38971 53.2605C2.09078 53.263 1.84759 53.4932 1.84759 53.771C1.84759 54.0487 2.08825 54.2789 2.38717 54.2839L57.3286 55.0597Z" fill="#1B1B1B"/>
</svg>
