<svg width="54" height="64" viewBox="0 0 54 64" fill="none" xmlns="http://www.w3.org/2000/svg">
<g opacity="0.3">
<path opacity="0.3" d="M30.9754 63.9998C43.2327 63.9998 53.1692 62.345 53.1692 60.3038C53.1692 58.2626 43.2327 56.6079 30.9754 56.6079C18.7182 56.6079 8.78168 58.2626 8.78168 60.3038C8.78168 62.345 18.7182 63.9998 30.9754 63.9998Z" fill="#1B1B1B"/>
</g>
<path d="M47.7122 31.645C47.7122 31.645 46.9999 39.2028 47.4502 45.9387C47.7224 49.9945 45.7636 53.8921 42.3063 56.0132C34.4556 60.8347 20.8147 59.6683 17.7467 54.326C17.5533 53.9916 17.4033 53.6394 17.299 53.2718L19.123 6.36048C21.1327 1.20965 30.3928 -0.860381 38.2792 1.28112C39.7877 1.68951 41.248 2.2536 42.5963 2.97849C46.972 5.3344 49.7118 9.93135 49.8034 14.9137C49.9001 20.353 49.1114 25.9454 47.7122 31.645Z" fill="#E07153"/>
<path d="M26.0197 1.13312C26.4242 0.931477 26.8618 0.793644 27.3121 0.709414C27.7623 0.627735 28.2253 0.604763 28.6884 0.625183C29.1488 0.650707 29.6093 0.724728 30.0596 0.831931C30.5098 0.944239 30.9474 1.10249 31.3723 1.28116C32.2245 1.64106 33.0106 2.13113 33.7611 2.64927C34.509 3.17508 35.206 3.74938 35.9184 4.28539C36.623 4.82651 37.3404 5.337 38.1036 5.74284C38.4827 5.94959 38.877 6.1206 39.2815 6.26099C39.485 6.3248 39.6911 6.39116 39.8997 6.43711C40.1057 6.49581 40.3194 6.52899 40.5331 6.56983C42.2401 6.83784 44.054 6.54941 45.6491 5.70711C44.2219 6.82508 42.3139 7.34067 40.4594 7.162C39.9964 7.11606 39.5333 7.03438 39.0805 6.90165C38.6302 6.76637 38.1927 6.59536 37.7729 6.38861C36.9334 5.97511 36.1753 5.4442 35.4553 4.89287C34.7379 4.33389 34.0485 3.76469 33.3388 3.23378C32.9851 2.96833 32.6264 2.71308 32.2576 2.47571C31.8861 2.24088 31.5096 2.01882 31.1204 1.81973C30.3419 1.42665 29.5151 1.12802 28.6502 0.992735C28.2177 0.921267 27.7776 0.898295 27.3375 0.916162C26.8948 0.941686 26.4547 1.01315 26.0197 1.13312Z" fill="white"/>
<path d="M23.2849 2.28162C23.842 2.14889 24.445 2.22292 24.9945 2.43732C25.5439 2.65428 26.0451 3.02183 26.4216 3.49658C26.7981 3.97134 27.0423 4.54309 27.1314 5.12759C27.2179 5.7121 27.1568 6.31958 26.9024 6.83518C26.8414 6.26854 26.7294 5.75549 26.5514 5.27564C26.3733 4.79833 26.1291 4.35931 25.8263 3.97389C25.5211 3.58847 25.1496 3.2541 24.7248 2.97333C24.2949 2.69001 23.8217 2.4654 23.2849 2.28162Z" fill="white"/>
<path d="M48.6026 9.41333C47.5469 10.1586 46.7938 11.2205 46.4351 12.3793C46.3486 12.6703 46.2825 12.9638 46.2443 13.2624C46.2113 13.5585 46.1985 13.8597 46.2113 14.1634C46.2392 14.7684 46.3512 15.3759 46.4962 15.9884C46.6412 16.601 46.8142 17.2187 46.9592 17.8543C47.0304 18.1733 47.0991 18.4924 47.1449 18.8268C47.1882 19.1586 47.2187 19.493 47.2187 19.8273C47.2212 20.4961 47.1322 21.175 46.888 21.8055C46.7582 22.1169 46.6056 22.4181 46.3995 22.681C46.1935 22.9413 45.9467 23.1685 45.6745 23.342C45.8933 23.1021 46.079 22.8443 46.2214 22.5687C46.3614 22.2904 46.4631 21.9944 46.5293 21.6957C46.6641 21.0933 46.6768 20.4731 46.6183 19.858C46.5903 19.5517 46.5394 19.2454 46.4809 18.9416C46.4173 18.643 46.3385 18.3341 46.2571 18.0304C46.0892 17.4204 45.906 16.8027 45.7533 16.1646C45.6796 15.8455 45.6134 15.5188 45.5651 15.1895C45.5193 14.8577 45.4913 14.5208 45.4888 14.1813C45.4888 13.8418 45.5193 13.4972 45.5804 13.1603C45.644 12.8234 45.7457 12.4941 45.8704 12.1802C46.3843 10.9193 47.3891 9.87788 48.6026 9.41333Z" fill="white"/>
<path d="M49.0123 26.678C48.9106 27.3365 48.6231 27.9644 48.2364 28.5183C47.8472 29.0722 47.3511 29.5546 46.7914 29.9374C46.2292 30.3203 45.6008 30.6036 44.9444 30.7619C44.2881 30.9176 43.6012 30.9533 42.9525 30.8027C43.5935 30.6317 44.1888 30.4377 44.7562 30.1901C45.3235 29.9426 45.8577 29.6465 46.364 29.3044C46.8677 28.9624 47.3409 28.5719 47.7785 28.1354C48.2186 27.6964 48.618 27.2114 49.0123 26.678Z" fill="white"/>
<path d="M42.9423 43.759C43.652 44.0041 44.2931 44.461 44.8045 45.0404C45.3107 45.6249 45.6796 46.3498 45.8449 47.1283C46.0078 47.9068 45.9721 48.7261 45.7534 49.497C45.6414 49.8824 45.4812 50.255 45.2802 50.6047C45.0767 50.9544 44.8299 51.2709 44.5602 51.5594C44.0184 52.1362 43.3951 52.5982 42.7693 53.0168C42.1409 53.4354 41.51 53.8132 40.9223 54.2394C40.3372 54.6632 39.7877 55.1379 39.3654 55.7122C38.9457 56.2891 38.6557 56.9808 38.5895 57.7287C38.5361 57.356 38.5615 56.9706 38.6429 56.5954C38.7243 56.2202 38.8668 55.8577 39.05 55.5131C39.4265 54.8265 39.9734 54.2573 40.556 53.7647C41.1386 53.2695 41.7669 52.8483 42.3597 52.4195C42.955 51.9907 43.5274 51.5491 44.0031 51.0361C44.4865 50.5282 44.8477 49.9411 45.0614 49.2851C45.2751 48.6291 45.3438 47.9221 45.2547 47.2304C45.1657 46.5387 44.9037 45.8674 44.5068 45.2675C44.1125 44.6703 43.5757 44.1572 42.9423 43.759Z" fill="white"/>
<path d="M23.7302 58.2082C23.9388 57.7105 24.239 57.2715 24.5798 56.8682C24.9207 56.4649 25.31 56.1025 25.7297 55.7835C26.1495 55.4644 26.6048 55.1913 27.0856 54.9744C27.5664 54.7574 28.0727 54.5915 28.6069 54.5303C28.2024 54.885 27.7929 55.1888 27.3909 55.495L26.1902 56.3986L24.992 57.3072C24.5849 57.6058 24.1804 57.9172 23.7302 58.2082Z" fill="white"/>
<g opacity="0.55">
<path opacity="0.55" d="M43.8759 3.76479C42.5556 3.06286 41.131 2.51664 39.6555 2.11846C31.7717 -0.0230476 22.5116 2.04444 20.4993 7.19783L18.6752 54.1093C18.7821 54.4768 18.9322 54.8265 19.1255 55.1635C19.5555 55.9113 20.194 56.5801 20.9954 57.1595C19.5377 56.4167 18.4005 55.4672 17.7467 54.3288C17.5533 53.9944 17.4033 53.6422 17.299 53.2746L19.123 6.36318C21.1327 1.21234 30.3928 -0.857698 38.2792 1.28381C39.7877 1.6922 41.248 2.25629 42.5963 2.98119C43.039 3.21856 43.4663 3.48147 43.8759 3.76479Z" fill="white"/>
</g>
<path d="M30.2224 59.505C27.2256 59.505 24.3814 59.0277 22.0536 58.119C19.2324 57.0189 17.4389 55.3853 16.869 53.3944C16.8003 53.1571 16.9377 52.9095 17.1743 52.8406C17.4109 52.7716 17.6577 52.9095 17.7263 53.1469C18.3445 55.3088 20.5959 56.5901 22.3767 57.2844C27.4876 59.2804 36.2541 59.2064 42.0748 55.6304C45.3794 53.6012 47.267 49.8976 47.005 45.9668C46.5572 39.2718 47.2619 31.6782 47.2696 31.6017C47.2721 31.5787 47.2746 31.5583 47.2797 31.5379C48.7705 25.4733 49.4497 20.0391 49.3582 14.924C49.2717 10.0693 46.6005 5.64333 42.3851 3.37421C37.3328 0.655854 30.1333 0.112183 24.8749 2.05204C22.1274 3.06536 20.283 4.61214 19.5377 6.52392C19.4486 6.75364 19.1891 6.86595 18.9602 6.77661C18.7312 6.68728 18.6193 6.42693 18.7083 6.19721C19.5504 4.04039 21.5754 2.31749 24.5671 1.21229C27.1543 0.257672 30.3394 -0.153271 33.5372 0.0509245C36.9232 0.267882 40.1286 1.14592 42.8074 2.58805C47.3052 5.01032 50.157 9.72979 50.2486 14.9087C50.3427 20.0927 49.6558 25.5907 48.1523 31.7191C48.104 32.2653 47.468 39.5066 47.8928 45.9081C48.1778 50.1733 46.1248 54.1908 42.5378 56.3936C39.7903 58.0807 36.1244 59.1604 32.2168 59.4335C31.5478 59.482 30.8813 59.505 30.2224 59.505Z" fill="#1B1B1B"/>
<path d="M6.58626 30.8692C5.41603 30.0473 4.20509 28.9472 3.16206 27.722C2.16736 26.5504 1.32784 25.2666 0.824136 24.0005C0.389115 22.9055 0.119453 21.1162 1.23626 20.376C2.07069 19.8247 3.48005 19.7149 4.30176 20.3505C4.78512 20.7257 5.16163 21.2081 5.5127 21.7161C5.71622 22.0096 5.90956 22.3108 6.11308 22.6043C6.42344 23.051 6.75416 23.4849 7.11032 23.8959C9.71281 26.7495 9.07427 28.988 6.58626 30.8692Z" fill="white"/>
<path d="M6.58882 30.9482L6.55066 30.9227C5.35244 30.0829 4.13387 28.9599 3.11373 27.7628C2.05035 26.5095 1.23882 25.2154 0.765637 24.0209C0.368776 23.0178 0.0126179 21.1085 1.2032 20.3198C2.03 19.7736 3.4877 19.6358 4.34248 20.2994C4.85382 20.695 5.24814 21.2183 5.56613 21.6777C5.67044 21.8283 5.7722 21.9789 5.87141 22.1295C5.96808 22.275 6.0673 22.4205 6.16651 22.5634C6.47688 23.0127 6.81269 23.4466 7.15867 23.8499C8.37724 25.1874 8.93946 26.4661 8.83261 27.6454C8.72576 28.8042 8.00327 29.8736 6.62698 30.9176L6.58882 30.9482ZM2.8746 19.9804C2.28948 19.9804 1.69419 20.1488 1.27189 20.427C0.149993 21.1698 0.501063 23.005 0.885204 23.9749C1.3533 25.1567 2.1572 26.438 3.21041 27.6811C4.21019 28.8578 5.40841 29.9604 6.58373 30.7925C7.9066 29.7818 8.60111 28.7506 8.70287 27.6377C8.80717 26.4942 8.25513 25.2486 7.062 23.9367C6.71093 23.5257 6.37258 23.0892 6.05967 22.6375C5.96045 22.4945 5.86124 22.3465 5.76456 22.201C5.66281 22.0504 5.56359 21.8998 5.45929 21.7492C5.14638 21.2974 4.75969 20.7844 4.26361 20.399C3.88711 20.108 3.3834 19.9804 2.8746 19.9804Z" fill="#1B1B1B"/>
<g opacity="0.3">
<path opacity="0.3" d="M39.7293 57.3075C40.2254 57.065 40.7037 56.8047 41.1616 56.5239C44.6189 54.4028 46.5752 50.5078 46.303 46.4494C45.8552 39.7109 46.565 32.1557 46.565 32.1557C47.9668 26.4561 48.7529 20.8637 48.6562 15.427C48.5671 10.4446 45.8273 5.84762 41.4491 3.49171C40.6681 3.07055 39.8463 2.70555 39.0017 2.3916C45.695 14.0027 41.6144 49.3311 27.2027 54.8367C24.7172 56.1053 21.8985 56.4627 18.749 55.5948C22.8448 59.5792 33.7713 60.3398 41.0268 56.7179C40.607 56.9297 40.1745 57.1263 39.7293 57.3075Z" fill="#1B1B1B"/>
</g>
<g opacity="0.3">
<path opacity="0.3" d="M6.45906 30.7416C5.28882 29.9197 4.07789 28.8196 3.03485 27.5944C3.06792 27.5484 3.08827 27.5255 3.08827 27.5255C4.92249 28.8119 6.64986 24.5264 5.3855 21.5859C5.58902 21.8795 5.78236 22.1807 5.98588 22.4742C6.29624 22.9209 6.62696 23.3548 6.98312 23.7657C9.58562 26.6219 8.94708 28.8604 6.45906 30.7416Z" fill="#1B1B1B"/>
</g>
<path d="M15.4011 58.507C14.7728 57.2921 14.2233 55.365 13.8646 52.5828L17.0878 52.6542L19.9854 52.718C20.367 58.8287 17.4643 62.5068 15.4011 58.507Z" fill="white"/>
<path d="M17.3015 60.2426C16.6019 60.2426 15.9176 59.6504 15.3427 58.535C14.6532 57.2026 14.1343 55.2015 13.801 52.5878L13.7908 52.5112L20.049 52.6491L20.0516 52.7103C20.3136 56.904 19.0314 59.8087 17.6424 60.1941C17.5305 60.2273 17.416 60.2426 17.3015 60.2426ZM13.9409 52.6491C14.2742 55.2092 14.7855 57.1694 15.4597 58.4737C16.0957 59.7091 16.8589 60.2732 17.6093 60.0665C18.9398 59.6964 20.166 56.8734 19.9244 52.7818L13.9409 52.6491Z" fill="#1B1B1B"/>
<path d="M30.0468 58.9842C29.3498 57.8126 28.7341 55.8447 28.3271 52.8813L31.8709 52.5469L35.0228 52.2483C35.2823 58.3741 32.2575 62.7005 30.0468 58.9842Z" fill="white"/>
<path d="M31.8353 60.4264C31.3087 60.4264 30.6498 60.1226 29.991 59.0174C29.2252 57.7336 28.6452 55.6712 28.2636 52.8916L28.2534 52.8252L35.0814 52.1794L35.084 52.2458C35.2519 56.2021 33.9799 59.8444 32.2449 60.3651C32.1228 60.4009 31.9854 60.4264 31.8353 60.4264ZM28.3984 52.9401C28.7775 55.6712 29.3499 57.6927 30.1003 58.9536C30.7363 60.0206 31.4665 60.4672 32.2118 60.2426C33.6695 59.8061 35.1298 56.6539 34.9619 52.3173L28.3984 52.9401Z" fill="#1B1B1B"/>
<path d="M6.58627 31.3159C6.49723 31.3159 6.4082 31.2904 6.33188 31.2343C3.71157 29.394 1.38891 26.6194 0.412024 24.1614C-0.134933 22.7831 -0.310468 20.8637 0.992052 20.001C1.92315 19.3858 3.55893 19.2071 4.57398 19.9959C5.25577 20.5242 5.72895 21.2312 6.18687 21.9153C6.28354 22.0608 6.38021 22.2037 6.47943 22.3467C6.78216 22.7831 7.10779 23.2068 7.44868 23.6025C7.60896 23.7888 7.5886 24.0721 7.40289 24.2329C7.21718 24.3937 6.9348 24.3733 6.77453 24.187C6.41583 23.7684 6.06985 23.3217 5.7493 22.8571C5.64754 22.7117 5.54833 22.5636 5.44911 22.413C5.01155 21.7596 4.59942 21.1445 4.03211 20.7029C3.35796 20.1822 2.14956 20.3073 1.48304 20.7463C0.564663 21.3538 0.923365 23.0307 1.23882 23.8322C2.27931 26.4535 4.80294 29.0723 6.84322 30.5043C7.04419 30.6446 7.09253 30.9254 6.95261 31.1271C6.86611 31.2496 6.72619 31.3159 6.58627 31.3159Z" fill="#1B1B1B"/>
<g opacity="0.3">
<path opacity="0.3" d="M30.0468 58.9843C30.085 58.9026 30.1104 58.8541 30.1104 58.8541C32.7587 58.6295 33.1708 53.6369 31.2298 53.5961L31.8708 52.5445L35.0228 52.2458C35.2823 58.3743 32.2575 62.7007 30.0468 58.9843Z" fill="#1B1B1B"/>
</g>
<path d="M42.4894 26.4714C43.5528 27.1963 43.2654 27.9186 42.2656 28.641C44.1379 30.2184 43.6698 31.561 42.1078 32.7887C42.8431 33.3655 42.6904 34.144 42.3165 34.9736C42.2529 35.1165 42.1816 35.2595 42.1078 35.405L41.7262 42.3272C41.8992 42.4191 42.0544 42.5161 42.1918 42.6156C43.4307 43.5064 43.2959 44.6525 41.7898 46.0589C43.5706 46.2171 43.3162 48.9304 41.9806 49.1218C41.1615 50.7758 40.1159 51.0285 38.9279 50.398C38.5056 51.4981 37.8365 51.6972 37.0199 51.3756C36.1702 52.6416 35.0686 52.4502 33.8831 51.7585C33.4023 53.8744 31.1789 54.048 30.113 53.0398C29.9578 52.8918 29.828 52.7182 29.7288 52.5242C28.958 53.1368 28.2609 53.1827 27.6936 52.2256C26.8821 53.3946 25.9993 53.3665 25.0657 52.5242C24.1753 53.609 21.9773 53.8081 21.1836 52.5676C20.5781 53.5579 19.3392 53.5886 18.894 52.7258C18.4157 53.5554 16.4136 53.4609 15.9048 52.3736C14.6201 53.7468 13.4728 53.3665 12.3865 52.2664C10.2673 54.5636 8.84271 52.3175 8.99535 50.9468C7.63941 51.3373 7.44861 49.3107 8.657 49.1192C7.72336 48.2565 7.46896 47.3683 7.91416 46.4596C6.86858 45.602 6.84823 44.7112 7.55291 43.7999L7.16114 36.038C5.678 35.0195 6.31654 32.73 7.38501 32.5922C6.23259 31.8264 6.39795 30.4532 7.25781 29.593C5.64747 28.9958 6.11302 27.0406 7.4308 26.6577C6.23004 24.4524 7.76407 22.5381 7.76407 22.5381C7.24001 21.4661 7.3265 20.5012 8.03882 19.6462C6.40558 16.9227 8.62393 15.21 8.62393 15.21C7.73354 14.7302 7.83021 12.9766 9.13273 12.7546C8.43313 11.5421 9.16326 10.1383 10.2673 9.77585C8.9114 6.92477 12.6841 4.84198 14.4649 7.22341C15.1442 5.31929 17.2429 5.63834 17.393 7.61649C18.5785 5.70215 21.3133 5.95229 22.107 7.77474C22.9008 6.09523 24.6816 6.2739 25.0962 7.74411C26.124 6.011 28.1592 6.56488 28.7952 7.89215C29.1132 6.15649 31.764 5.73278 31.7208 8.19844C31.8785 7.86152 32.0744 7.57309 32.2932 7.33316C32.517 7.08302 32.7714 6.88393 33.0335 6.73844C34.4072 5.97271 36.1244 6.57509 36.3839 8.41285C37.4956 8.08614 38.2791 8.28267 38.2613 9.7733C39.4519 9.52061 40.6145 10.6769 40.2965 11.8255C41.9196 10.9832 42.7769 12.5606 41.6321 13.5484C43.3442 13.043 44.6213 14.8552 43.4434 15.8762C44.4559 17.0018 44.0794 19.0361 42.9041 19.8019C44.3542 20.5395 43.5757 21.729 42.7769 22.7678C44.5017 24.1895 43.8047 25.2973 42.4894 26.4714Z" fill="white"/>
<path d="M31.675 53.7008C31.0873 53.7008 30.5022 53.489 30.085 53.1061L30.0646 53.0882C29.9196 52.9504 29.7975 52.7947 29.7034 52.6237C29.2709 52.9529 28.8893 53.0806 28.5408 53.0168C28.2228 52.9581 27.9353 52.7309 27.686 52.3429C27.3095 52.856 26.9025 53.1418 26.47 53.1903C26.0324 53.2414 25.5592 53.0474 25.0683 52.6186C24.5595 53.198 23.6742 53.5349 22.7914 53.4813C22.0893 53.4405 21.5219 53.1572 21.181 52.6849C20.8631 53.152 20.3619 53.4277 19.8607 53.4073C19.4486 53.392 19.1001 53.1903 18.8864 52.8483C18.6345 53.1801 18.1257 53.3664 17.5228 53.3409C16.7952 53.3103 16.1643 52.9785 15.887 52.4859C15.3452 53.0423 14.8135 53.318 14.2589 53.3231C14.2512 53.3231 14.2436 53.3231 14.236 53.3231C13.6432 53.3231 13.0352 53.0091 12.384 52.3608C11.3511 53.4532 10.5548 53.4201 10.0664 53.1954C9.30574 52.8457 8.87326 51.8197 8.9216 51.0335C8.56799 51.1101 8.26271 51.0335 8.04901 50.8089C7.7997 50.546 7.7183 50.1121 7.84804 49.7292C7.95743 49.4025 8.20165 49.1728 8.52219 49.0834C7.65215 48.2386 7.42065 47.3631 7.83277 46.4799C6.86097 45.6606 6.74395 44.7545 7.48679 43.782L7.09756 36.0736C6.24279 35.4687 6.11813 34.4886 6.29112 33.7713C6.44122 33.1511 6.79992 32.6942 7.22731 32.564C6.80501 32.245 6.55824 31.8187 6.5099 31.3261C6.45139 30.7441 6.68798 30.1111 7.14335 29.6185C6.50736 29.3505 6.14611 28.8221 6.16647 28.1891C6.19191 27.4846 6.66763 26.8491 7.33415 26.6219C6.2784 24.5851 7.49697 22.7881 7.68777 22.5252C7.17897 21.4583 7.27055 20.4858 7.95997 19.6333C6.52517 17.1957 8.14568 15.5417 8.51202 15.2125C8.11516 14.9496 7.90401 14.4008 7.99305 13.8418C8.08972 13.2496 8.47386 12.831 9.03099 12.7009C8.74861 12.1649 8.71299 11.5625 8.92923 10.9907C9.1531 10.4037 9.61611 9.93657 10.1758 9.72982C9.52452 8.28769 10.1682 7.07017 11.1094 6.49843C12.0456 5.92923 13.4728 5.88073 14.442 7.08549C14.7728 6.2636 15.424 5.7965 16.1236 5.89094C16.813 5.98283 17.3142 6.57755 17.4338 7.42496C18.0138 6.59797 18.9398 6.15385 19.9447 6.22531C20.8885 6.29423 21.7051 6.82514 22.1045 7.6215C22.4988 6.87874 23.145 6.45759 23.8166 6.51119C24.4043 6.55969 24.8902 6.96808 25.109 7.58322C25.5567 6.90427 26.2003 6.54692 26.9355 6.58266C27.6733 6.61584 28.3882 7.05741 28.7647 7.70063C29.014 6.80727 29.8611 6.33252 30.5556 6.40143C31.1178 6.45759 31.708 6.89406 31.7717 7.93545C31.9065 7.69297 32.0617 7.47346 32.2397 7.27948C32.4636 7.02934 32.7206 6.82514 32.9978 6.67199C33.7178 6.27126 34.5497 6.23042 35.2238 6.56479C35.87 6.8864 36.2974 7.5092 36.4322 8.32087C37.0835 8.13965 37.5516 8.16773 37.8645 8.4051C38.1672 8.63738 38.3173 9.05598 38.3199 9.68643C38.8948 9.59454 39.5028 9.80895 39.9251 10.2633C40.3067 10.6717 40.4721 11.2 40.383 11.7003C41.2225 11.3149 41.8 11.5855 42.0468 11.9505C42.2885 12.3103 42.3088 12.9025 41.8382 13.4232C42.7617 13.2496 43.4867 13.727 43.7894 14.2808C44.0922 14.8347 43.9904 15.4396 43.5299 15.8736C43.9726 16.3943 44.1659 17.1319 44.0642 17.9053C43.9624 18.6889 43.5757 19.3832 43.0211 19.7865C43.4282 20.0136 43.6724 20.2995 43.7487 20.6364C43.8988 21.3026 43.3773 22.0735 42.8609 22.7499C43.5248 23.3063 43.853 23.8449 43.8632 24.3911C43.8785 25.167 43.2374 25.8664 42.5887 26.4535C43.0059 26.7546 43.2196 27.0737 43.2247 27.4055C43.2297 27.7986 42.9499 28.1993 42.3673 28.6332C43.1738 29.3275 43.5605 29.9962 43.5477 30.6778C43.535 31.3771 43.0975 32.0637 42.2071 32.7784C42.9423 33.4114 42.7057 34.2486 42.3724 34.9888C42.3063 35.1343 42.2325 35.2824 42.1689 35.41L41.7899 42.2786C41.9527 42.368 42.1002 42.4598 42.2274 42.5517C42.7693 42.9397 43.0593 43.3864 43.0898 43.8764C43.1305 44.5069 42.7388 45.2216 41.9298 46.0026C42.7769 46.1456 43.1 46.8807 43.1153 47.4933C43.1331 48.2182 42.7566 49.0426 42.0214 49.1702C41.6067 49.9972 41.1081 50.5077 40.5433 50.6915C40.0727 50.8446 39.5384 50.7706 38.9584 50.4771C38.7523 50.9876 38.475 51.3219 38.1341 51.4725C37.8238 51.6104 37.4651 51.6002 37.0402 51.4445C36.0837 52.8228 34.8193 52.3582 33.9188 51.8477C33.6924 52.7309 33.1403 53.3486 32.3568 53.5885C32.138 53.6676 31.9065 53.7008 31.675 53.7008ZM30.1384 52.9836L30.1537 52.9963C30.7006 53.5145 31.5707 53.7085 32.3211 53.4788C33.0843 53.2465 33.616 52.6313 33.817 51.7482L33.8374 51.664L33.9111 51.7074C35.3078 52.5216 36.2491 52.4093 36.9639 51.3449L36.9919 51.3015L37.0402 51.3194C37.4524 51.4802 37.7933 51.4981 38.0833 51.3679C38.4064 51.2249 38.6684 50.8906 38.8668 50.3775L38.8923 50.3112L38.9559 50.3443C39.5359 50.6532 40.0421 50.7298 40.5051 50.5817C41.0419 50.4082 41.5202 49.9079 41.9221 49.0962L41.9374 49.0656L41.9705 49.0605C42.6548 48.9635 43.0059 48.1875 42.9881 47.5086C42.9728 46.8909 42.6472 46.2017 41.7822 46.1252L41.6398 46.1124L41.7441 46.0154C42.5912 45.2241 43.0008 44.512 42.9626 43.8994C42.9346 43.4502 42.6624 43.0367 42.1536 42.6717C42.0214 42.5747 41.8662 42.4803 41.6957 42.3884L41.6601 42.368L42.0519 35.3794C42.118 35.2492 42.1943 35.0986 42.2579 34.9505C42.581 34.2359 42.81 33.4242 42.0671 32.8422L42.0035 32.7912L42.0671 32.7401C42.9677 32.0331 43.4104 31.3618 43.4205 30.688C43.4307 30.032 43.0389 29.3786 42.2223 28.6919L42.1587 28.6383L42.2249 28.5898C42.8151 28.1636 43.1 27.7807 43.0949 27.4183C43.0898 27.1145 42.8736 26.8133 42.4487 26.5249L42.3801 26.479L42.4411 26.4254C43.0873 25.8485 43.7487 25.1568 43.7335 24.4064C43.7233 23.8857 43.3951 23.3675 42.7311 22.8213L42.6828 22.783L42.721 22.7345C43.2323 22.0709 43.764 21.3077 43.6241 20.6798C43.5503 20.3531 43.3035 20.0851 42.871 19.8656L42.7718 19.8145L42.8634 19.7533C43.4333 19.3832 43.8327 18.6915 43.937 17.9028C44.0362 17.1421 43.8378 16.4223 43.3926 15.9246L43.3493 15.8761L43.3977 15.8327C43.8505 15.4396 43.9573 14.873 43.6749 14.3549C43.3722 13.7984 42.6065 13.3288 41.6423 13.6121L41.3599 13.6963L41.5838 13.5023C42.1689 12.997 42.1765 12.3869 41.9399 12.0347C41.711 11.6952 41.1513 11.4527 40.3194 11.8866L40.1897 11.953L40.2278 11.8126C40.3652 11.3174 40.2177 10.7763 39.831 10.3628C39.4189 9.92126 38.8185 9.72217 38.2664 9.83958L38.1876 9.85489V9.77577C38.1952 9.15552 38.0604 8.73182 37.7805 8.51996C37.4931 8.30045 37.0377 8.28514 36.3915 8.47657L36.3203 8.49699L36.3101 8.42297C36.1956 7.61895 35.7886 7.00381 35.1602 6.69241C34.5242 6.37591 33.7381 6.4142 33.0538 6.79706C32.7892 6.9451 32.545 7.14164 32.3288 7.37902C32.1075 7.6215 31.9192 7.90738 31.7666 8.22899L31.6394 8.49699L31.6445 8.20091C31.6623 7.23353 31.2476 6.61329 30.5378 6.54182C29.8586 6.4729 29.0165 6.97573 28.8461 7.90482L28.8105 8.09881L28.7265 7.92269C28.3983 7.23864 27.6758 6.75622 26.9254 6.72304C26.1952 6.68986 25.5618 7.06507 25.1395 7.7772L25.0632 7.90482L25.0225 7.76189C24.8418 7.12378 24.3737 6.69752 23.7988 6.64902C23.1475 6.59287 22.5166 7.03699 22.1529 7.80528L22.0918 7.93035L22.0358 7.80273C21.6771 6.98339 20.8707 6.42951 19.9269 6.36315C18.9118 6.28913 17.9782 6.77154 17.4338 7.65213L17.332 7.81804L17.3167 7.62406C17.2506 6.74601 16.7723 6.12066 16.0982 6.02878C15.4316 5.93944 14.8084 6.41675 14.5133 7.24629L14.4726 7.3586L14.4013 7.26416C13.4804 6.03133 12.0787 6.06451 11.1654 6.61839C10.2597 7.16972 9.64409 8.34895 10.3106 9.75024L10.3411 9.81661L10.2725 9.83958C9.71786 10.0208 9.2574 10.4726 9.03862 11.0469C8.82493 11.6084 8.87326 12.2031 9.17345 12.7238L9.21924 12.803L9.13021 12.8183C8.58325 12.9127 8.20165 13.3058 8.11007 13.8699C8.02103 14.411 8.23981 14.9394 8.64176 15.1563L8.72826 15.2023L8.64939 15.2635C8.56035 15.3324 6.49718 16.9737 8.08208 19.6154L8.10498 19.6537L8.077 19.6895C7.37995 20.5292 7.29091 21.4532 7.80988 22.5125L7.82769 22.5482L7.80225 22.5788C7.78698 22.5967 6.30893 24.4881 7.47153 26.6347L7.50969 26.7036L7.43337 26.7266C6.78974 26.9129 6.30638 27.5331 6.28349 28.1993C6.26059 28.8119 6.61929 29.302 7.26547 29.5419L7.35959 29.5751L7.28836 29.6466C6.81518 30.1213 6.56841 30.7467 6.62438 31.3184C6.67526 31.8161 6.94492 32.2398 7.40539 32.5461L7.54785 32.6406L7.3774 32.6636C6.94492 32.7197 6.55315 33.1791 6.40306 33.8071C6.2377 34.4911 6.35726 35.4253 7.18406 35.9945L7.2095 36.0124L7.60382 43.8305L7.58855 43.8484C6.86097 44.7877 6.97545 45.6274 7.93962 46.4187L7.97778 46.4519L7.95489 46.4978C7.5275 47.3708 7.77172 48.2386 8.68246 49.0809L8.77914 49.1702L8.64939 49.1906C8.31613 49.2442 8.06173 49.4586 7.95489 49.7777C7.84041 50.1172 7.90909 50.4975 8.12788 50.7272C8.26525 50.8727 8.52219 51.0182 8.9623 50.8931L9.05389 50.8676L9.04371 50.962C8.95976 51.7125 9.3668 52.7437 10.1071 53.0857C10.565 53.2975 11.3231 53.318 12.3254 52.2332L12.3712 52.1847L12.417 52.2332C13.0632 52.8866 13.6534 53.2031 14.2258 53.2031C14.2334 53.2031 14.2385 53.2031 14.2462 53.2031C14.7855 53.1954 15.307 52.9147 15.8438 52.3404L15.9074 52.2714L15.9481 52.3557C16.1796 52.8509 16.7952 53.1903 17.5152 53.221C18.1156 53.2465 18.6294 53.0423 18.8228 52.7028L18.8813 52.6007L18.9347 52.7054C19.1179 53.0602 19.4537 53.272 19.8531 53.2873C20.3441 53.3026 20.8173 53.027 21.1149 52.542L21.1683 52.4552L21.2243 52.542C21.5347 53.0295 22.0918 53.3205 22.7888 53.3613C23.6436 53.4124 24.534 53.0627 25.0021 52.4935L25.0454 52.4425L25.0937 52.4884C25.5771 52.9249 26.0299 53.1189 26.4445 53.0729C26.8592 53.0244 27.2561 52.7309 27.625 52.2L27.6809 52.1183L27.7318 52.2025C27.9735 52.6084 28.2482 52.8432 28.551 52.8993C28.8766 52.9606 29.2455 52.8228 29.6729 52.4833L29.7339 52.4348L29.7695 52.5063C29.8713 52.6773 29.9909 52.8381 30.1384 52.9836Z" fill="#1B1B1B"/>
<path d="M31.6674 54.0863C30.8559 54.0863 30.085 53.734 29.6042 53.1546C29.2073 53.3844 28.8334 53.4635 28.4721 53.3971C28.1796 53.3435 27.915 53.1929 27.6759 52.9504C27.3172 53.318 26.9279 53.5273 26.5133 53.5732C26.0528 53.6268 25.5771 53.4762 25.0937 53.1291C24.4959 53.6345 23.6309 53.9178 22.7685 53.8668C22.1453 53.8285 21.5957 53.6141 21.1913 53.2618C20.8173 53.6141 20.3365 53.8106 19.8455 53.7953C19.4664 53.7825 19.1205 53.6396 18.8508 53.3997C18.5048 53.6294 18.0291 53.7519 17.505 53.7289C16.9504 53.706 16.2865 53.512 15.8362 53.0576C15.3274 53.4865 14.7982 53.706 14.2614 53.7111C13.6407 53.7213 13.0276 53.4507 12.3891 52.8968C11.2621 53.928 10.3615 53.7621 9.9036 53.5503C9.11242 53.1853 8.63924 52.274 8.54766 51.447C8.24492 51.4215 7.97526 51.2965 7.7692 51.0795C7.41813 50.7094 7.30619 50.1351 7.48173 49.6118C7.56568 49.3591 7.71323 49.1473 7.90403 48.9865C7.1561 48.0702 7.15864 47.2279 7.37488 46.5897C6.47686 45.7143 6.37764 44.6907 7.0925 43.6723L6.71853 36.2779C5.8434 35.5581 5.72129 34.486 5.91464 33.6871C6.03675 33.1843 6.28097 32.7657 6.59642 32.4926C6.3293 32.1684 6.16649 31.783 6.12579 31.3695C6.06982 30.8233 6.23009 30.2439 6.56335 29.7411C6.04438 29.3761 5.75945 28.8222 5.78235 28.179C5.80779 27.4592 6.21737 26.8006 6.82538 26.4407C6.07745 24.6183 6.88135 23.0613 7.25023 22.4896C6.82284 21.4558 6.90933 20.4706 7.50208 19.6078C6.37764 17.4817 7.36216 15.9119 7.96254 15.2304C7.66235 14.8552 7.52498 14.3294 7.61402 13.7857C7.70814 13.2012 8.04141 12.7392 8.52222 12.4891C8.35177 11.9607 8.36449 11.3992 8.57055 10.8632C8.78425 10.3016 9.1862 9.83197 9.68736 9.5461C9.1862 8.04526 9.90106 6.79456 10.9085 6.18198C11.865 5.60002 13.2667 5.49026 14.3479 6.44743C14.788 5.77869 15.4546 5.42645 16.172 5.52345C16.7189 5.59747 17.2939 5.97268 17.6042 6.66439C18.2428 6.08498 19.0772 5.79145 19.9701 5.85526C20.83 5.91652 21.5983 6.31726 22.1071 6.94261C22.5726 6.38362 23.1985 6.08754 23.8472 6.14369C24.389 6.18963 24.8571 6.4704 25.1777 6.91198C25.6636 6.43212 26.2843 6.18708 26.9534 6.21516C27.6072 6.24579 28.2254 6.53166 28.6833 6.98855C29.1361 6.31215 29.9222 5.96757 30.5938 6.03649C31.1204 6.09009 31.6648 6.38872 31.9523 7.04215C32.7435 6.16921 33.7942 5.87313 34.6388 6.00075C35.6513 6.1539 36.4145 6.85838 36.7146 7.87935C37.2972 7.77726 37.75 7.85638 38.0909 8.11673C38.4191 8.36687 38.6125 8.75739 38.6761 9.30107C39.2383 9.32659 39.7929 9.58183 40.2024 10.0183C40.5204 10.3578 40.7138 10.7662 40.7698 11.1873C41.5024 11.0418 42.0723 11.3252 42.3597 11.7514C42.6192 12.1343 42.6625 12.5988 42.5098 13.0378C43.2603 13.1348 43.8378 13.5968 44.1176 14.115C44.4458 14.7174 44.3975 15.3861 44.0133 15.9119C44.3822 16.4862 44.5349 17.2136 44.4356 17.9717C44.3441 18.666 44.054 19.3015 43.6241 19.7686C43.881 19.9984 44.0439 20.2664 44.1125 20.5727C44.2754 21.2976 43.8556 22.0429 43.3672 22.7193C43.9396 23.2706 44.2245 23.8245 44.2347 24.4039C44.2499 25.1951 43.7437 25.8766 43.1509 26.4612C43.4409 26.7572 43.591 27.0789 43.5961 27.4209C43.6012 27.8446 43.385 28.2581 42.9372 28.6716C43.6088 29.3429 43.9294 30.0116 43.9192 30.7033C43.9065 31.4308 43.5223 32.1301 42.749 32.8321C43.4079 33.7305 42.8813 34.851 42.5353 35.5326L42.174 42.0872C42.9372 42.5569 43.3672 43.1184 43.4486 43.7591C43.5351 44.4227 43.2552 45.117 42.5989 45.8649C43.1357 46.1763 43.4664 46.7608 43.4867 47.5035C43.5096 48.328 43.0899 49.2622 42.2707 49.5225C41.823 50.3521 41.2786 50.8753 40.6527 51.0769C40.1846 51.2275 39.6758 51.202 39.1365 50.9978C38.9101 51.4088 38.6226 51.6921 38.2817 51.8452C37.9536 51.9907 37.5847 52.0111 37.1777 51.909C36.1626 53.1419 34.8982 52.7845 34.135 52.417C33.7509 53.3486 32.9801 53.9535 31.9981 54.071C31.8913 54.0786 31.7793 54.0863 31.6674 54.0863ZM29.7263 52.0826C29.7594 52.0826 29.7899 52.0852 29.823 52.0928C29.9527 52.1209 30.0647 52.2077 30.1257 52.3302C30.4208 52.9198 31.1484 53.272 31.8989 53.1802C32.6875 53.0857 33.2523 52.5318 33.4482 51.664C33.4787 51.5262 33.5754 51.4113 33.7051 51.3526C33.8349 51.2965 33.9849 51.3041 34.1071 51.3756C35.3383 52.0928 36.0507 52.0239 36.651 51.1305C36.7681 50.957 36.9894 50.8881 37.1827 50.9646C37.4956 51.0872 37.7399 51.105 37.9307 51.0208C38.1571 50.9212 38.353 50.6583 38.5107 50.2423C38.5565 50.1223 38.6506 50.0279 38.7702 49.9845C38.8898 49.9386 39.022 49.9488 39.134 50.0075C39.6199 50.2653 40.0295 50.3342 40.3882 50.2193C40.8232 50.0789 41.2251 49.645 41.5813 48.9278C41.6474 48.7951 41.7721 48.7057 41.9171 48.6853C42.3597 48.6215 42.6218 48.0319 42.6065 47.5214C42.5989 47.2406 42.4997 46.577 41.7492 46.5106C41.5737 46.4953 41.4236 46.3779 41.3676 46.2094C41.3116 46.0435 41.3574 45.8572 41.4846 45.7372C42.2631 45.0123 42.6396 44.364 42.576 43.8688C42.5226 43.463 42.1664 43.0776 41.5126 42.7253C41.36 42.6437 41.2684 42.4803 41.2785 42.3067L41.6601 35.3845C41.6627 35.3233 41.6805 35.262 41.7085 35.2058C42.2961 34.0547 42.3267 33.534 41.8306 33.1435C41.7238 33.0592 41.6601 32.9291 41.6601 32.7912C41.6601 32.6534 41.7238 32.5232 41.8306 32.439C42.6218 31.8162 43.0288 31.224 43.039 30.6804C43.0466 30.1545 42.6905 29.5854 41.9781 28.9855C41.8738 28.8962 41.8153 28.7635 41.8204 28.6256C41.8255 28.4878 41.8942 28.3602 42.0061 28.2785C42.6294 27.8293 42.7184 27.5511 42.7184 27.4234C42.7159 27.2575 42.5455 27.0508 42.2402 26.8415C42.1257 26.7649 42.0545 26.6373 42.0468 26.502C42.0392 26.3642 42.0926 26.2314 42.1944 26.1395C43.0085 25.4121 43.3672 24.8812 43.357 24.4141C43.3494 24.0185 43.0593 23.582 42.4946 23.1175C42.3089 22.9643 42.2783 22.6912 42.4233 22.4998C42.7541 22.071 43.3697 21.2695 43.2552 20.7615C43.2069 20.5522 43.0263 20.3685 42.7006 20.2026C42.5582 20.1311 42.4666 19.9882 42.4564 19.8274C42.4462 19.6665 42.5251 19.516 42.6599 19.4292C43.128 19.1229 43.474 18.5179 43.563 17.8492C43.647 17.2009 43.4842 16.5909 43.1128 16.1799C43.0314 16.0906 42.9907 15.9732 42.9983 15.8532C43.0059 15.7332 43.0619 15.6209 43.1509 15.5418C43.6038 15.1487 43.4359 14.7071 43.3443 14.5387C43.1128 14.1124 42.5175 13.7551 41.7543 13.9797C41.5533 14.0384 41.3371 13.9491 41.2378 13.7653C41.1386 13.5815 41.1793 13.3518 41.3396 13.214C41.7466 12.8617 41.7746 12.4661 41.6296 12.2491C41.4439 11.9735 41.0013 11.9658 40.5001 12.2262C40.3424 12.3078 40.1516 12.2874 40.0142 12.1751C39.8768 12.0628 39.8183 11.879 39.8666 11.708C39.9684 11.343 39.8539 10.9372 39.5588 10.6232C39.2383 10.2787 38.7753 10.1204 38.3504 10.2123C38.2181 10.2404 38.0808 10.2072 37.9765 10.1204C37.8722 10.0336 37.8111 9.906 37.8136 9.76816C37.8187 9.42869 37.778 8.98967 37.5592 8.82376C37.3786 8.68593 37.0148 8.69358 36.5086 8.84163C36.3839 8.87736 36.2516 8.85949 36.1422 8.78802C36.0329 8.71911 35.9616 8.60425 35.9438 8.47663C35.8192 7.59348 35.2824 6.99876 34.5141 6.88135C33.7356 6.76393 32.6952 7.18509 32.1228 8.39239C32.0337 8.58128 31.8226 8.68337 31.619 8.63488C31.4155 8.58638 31.2731 8.4026 31.2756 8.1933C31.2883 7.43523 31.011 6.97324 30.5124 6.92219C29.9985 6.87114 29.36 7.28208 29.2328 7.97379C29.1972 8.16523 29.0445 8.31072 28.8537 8.33624C28.6629 8.36177 28.4772 8.26222 28.3933 8.0861C28.1262 7.52712 27.5334 7.13149 26.9203 7.10341C26.3377 7.07789 25.8264 7.38673 25.4779 7.97124C25.3863 8.12439 25.2133 8.20862 25.0378 8.18565C24.8622 8.16268 24.7147 8.03505 24.6663 7.86404C24.529 7.37652 24.1957 7.06257 23.7785 7.02684C23.2799 6.986 22.8067 7.33568 22.509 7.96614C22.4353 8.12439 22.2775 8.21883 22.0995 8.22138C21.9239 8.21883 21.7687 8.11418 21.6975 7.95337C21.3973 7.26421 20.713 6.79967 19.9091 6.74096C19.0365 6.6797 18.2351 7.0932 17.7671 7.85128C17.6653 8.01463 17.4694 8.09631 17.2837 8.05037C17.0954 8.00442 16.9606 7.84362 16.9453 7.64963C16.8919 6.96047 16.5434 6.4704 16.0575 6.40404C15.5767 6.34023 15.1162 6.71799 14.8822 7.37142C14.8262 7.52712 14.6914 7.63687 14.5286 7.6624C14.3657 7.68792 14.2029 7.619 14.1063 7.48883C13.3278 6.44743 12.1449 6.47551 11.374 6.94261C10.6719 7.36886 10.0639 8.31582 10.6668 9.58183C10.7228 9.69669 10.7253 9.83197 10.6744 9.94939C10.6235 10.0668 10.5243 10.1587 10.4048 10.197C9.9672 10.3399 9.58306 10.7177 9.40752 11.1771C9.23708 11.6289 9.27524 12.1062 9.51692 12.5248C9.59069 12.6524 9.59578 12.8056 9.53472 12.9383C9.47367 13.071 9.34901 13.1655 9.20655 13.1884C8.65959 13.2829 8.52985 13.7347 8.49932 13.9235C8.43827 14.2988 8.57819 14.674 8.83513 14.8092C8.96742 14.8807 9.05645 15.016 9.06917 15.1666C9.08189 15.3172 9.01575 15.4652 8.89618 15.5571C8.81986 15.6158 7.02127 17.0707 8.423 19.4088C8.51967 19.5721 8.50441 19.7789 8.38484 19.9243C7.78446 20.6467 7.71578 21.4124 8.1686 22.3339C8.24492 22.4896 8.22457 22.6759 8.11518 22.8112C8.06176 22.8801 6.78722 24.5315 7.82262 26.4458C7.88622 26.5658 7.89385 26.7062 7.84297 26.8313C7.79209 26.9563 7.68525 27.0508 7.5555 27.0891C7.00092 27.2499 6.69564 27.7731 6.68037 28.207C6.66511 28.6512 6.9246 28.9957 7.41304 29.177C7.5555 29.2306 7.66235 29.3505 7.69288 29.5011C7.72595 29.6492 7.68016 29.8049 7.57331 29.9121C7.18154 30.3051 6.97293 30.8156 7.01872 31.2751C7.05688 31.6605 7.26295 31.977 7.63182 32.222C7.78701 32.3241 7.86078 32.513 7.82008 32.6942C7.77683 32.8755 7.62674 33.0133 7.44357 33.0363C7.17645 33.072 6.9017 33.4293 6.78977 33.8888C6.65493 34.4503 6.74906 35.2109 7.41559 35.6704C7.53006 35.7495 7.6013 35.8771 7.60893 36.015L8.0007 43.7795C8.00579 43.8867 7.97272 43.9914 7.90657 44.0756C7.30874 44.8464 7.39523 45.4565 8.19659 46.115C8.35686 46.2477 8.40519 46.4723 8.31361 46.6587C8.08974 47.113 7.91421 47.8277 8.95724 48.7925C9.08189 48.9074 9.13023 49.086 9.08189 49.2494C9.03356 49.4128 8.89364 49.5353 8.72574 49.5608C8.47897 49.5991 8.37721 49.7624 8.33142 49.8926C8.26273 50.0943 8.30089 50.3316 8.42046 50.4567C8.51459 50.5562 8.66722 50.5792 8.87329 50.5205C9.01575 50.4797 9.17093 50.5129 9.28287 50.6098C9.39735 50.7068 9.45332 50.8523 9.43805 51.0004C9.36936 51.6027 9.71789 52.4731 10.2827 52.7309C10.9059 53.0168 11.5928 52.4731 12.0609 51.9652C12.1423 51.8759 12.2593 51.8248 12.3789 51.8223C12.501 51.8172 12.618 51.8682 12.702 51.955C13.2718 52.5318 13.7755 52.8126 14.2411 52.8126C14.2462 52.8126 14.2513 52.8126 14.2564 52.8126C14.6863 52.8075 15.1188 52.565 15.5818 52.0698C15.6835 51.9626 15.8311 51.9116 15.9761 51.9346C16.1211 51.9575 16.2458 52.052 16.3094 52.1847C16.5052 52.6033 17.0725 52.8101 17.5483 52.8305C17.9935 52.8483 18.3878 52.7156 18.5099 52.5038C18.5913 52.3634 18.7439 52.274 18.9068 52.2791C19.0696 52.2817 19.2171 52.3761 19.2909 52.5191C19.4537 52.833 19.731 52.8892 19.8836 52.8943C20.2373 52.9096 20.5858 52.6926 20.8046 52.3328C20.8834 52.2026 21.0259 52.1209 21.1785 52.1183C21.3388 52.1158 21.4762 52.1949 21.5576 52.3251C21.8858 52.8381 22.4912 52.9479 22.8245 52.9683C23.5648 53.0143 24.328 52.7207 24.7198 52.2383C24.7961 52.1439 24.9106 52.0852 25.0301 52.0775C25.1522 52.0673 25.2718 52.1107 25.3608 52.1924C25.7577 52.5523 26.1113 52.7156 26.4115 52.6799C26.7117 52.6467 27.0195 52.4068 27.3248 51.9703C27.4113 51.8452 27.5563 51.7789 27.7064 51.7789C27.8565 51.784 27.9964 51.8657 28.0727 51.9958C28.2559 52.3021 28.4442 52.4757 28.6324 52.5114C28.8944 52.5599 29.2201 52.3532 29.449 52.1719C29.5279 52.1158 29.6271 52.0826 29.7263 52.0826Z" fill="#1B1B1B"/>
<g opacity="0.3">
<path opacity="0.3" d="M37.8264 36.4769C39.0399 36.1732 40.2076 35.7699 41.1692 35.2313H41.1718C41.5457 34.4018 41.6958 33.6233 40.9632 33.0464C42.5277 31.8187 42.9958 30.4761 41.1209 28.8987C42.1207 28.1789 42.4081 27.454 41.3448 26.7291C42.66 25.555 43.3596 24.4472 41.6297 23.0281C42.4285 21.9892 43.207 20.7998 41.7569 20.0621C42.9322 19.2964 43.3113 17.2647 42.2962 16.1365C43.4715 15.1155 42.197 13.3033 40.4849 13.8086C41.6297 12.8208 40.7724 11.2434 39.1493 12.0857C39.4673 10.9371 38.3047 9.78089 37.1141 10.0336C37.1344 8.54295 36.3509 8.34641 35.2366 8.67312C35.0534 7.38414 34.1554 6.70264 33.1607 6.67456C33.1175 6.69498 33.0742 6.71795 33.031 6.74348L32.2881 7.3382C34.6846 6.83026 35.0305 8.09627 33.3261 11.1388C34.0893 11.7769 33.985 12.4737 33.1149 13.2241C35.1399 14.5386 34.5268 15.9655 32.8605 17.4357C33.8069 18.2167 33.9137 19.0769 32.5222 20.0698C33.1276 21.3639 33.1938 22.5686 32.0134 23.5615C32.8859 24.2762 32.7893 24.9424 31.7997 25.5601C32.7969 27.1988 32.8503 28.595 31.3875 29.6006C32.0388 30.3995 31.965 31.0759 31.2603 31.6477C32.166 32.9545 32.1355 33.8326 31.2603 34.3226C31.9472 35.1956 31.6979 36.1502 31.1026 37.1303C31.1026 37.1303 34.6464 37.1482 38.1215 36.4156C38.0248 36.4361 37.9256 36.4565 37.8264 36.4769Z" fill="#1B1B1B"/>
</g>
<path d="M45.3311 25.4631C44.2754 28.1304 41.7161 30.8819 39.3731 32.4721L34.9313 28.817C35.4197 28.526 35.8954 28.212 36.3559 27.8726C36.3559 27.87 36.3559 27.87 36.3559 27.87C37.7805 26.8133 39.0322 25.5218 40.0422 24.0618C40.5917 23.2654 41.0877 22.4052 41.8509 21.8105C42.6065 21.2235 43.8607 21.2694 44.7053 21.711C44.7791 21.7493 44.8503 21.7901 44.9165 21.8335C46.0358 22.5763 45.7636 24.3681 45.3311 25.4631Z" fill="white"/>
<path d="M34.8549 28.6894C35.206 28.2121 35.6156 27.8726 36.0328 27.5331C36.4449 27.1911 36.8672 26.867 37.2743 26.5198C37.6838 26.1753 38.0604 25.7924 38.4191 25.3942C38.7778 24.996 39.1161 24.5825 39.4341 24.1486C39.7496 23.7198 40.037 23.2604 40.3678 22.7933C40.6959 22.3287 41.0724 21.8616 41.5558 21.4788C41.8204 21.2669 42.1384 21.1189 42.4487 21.0372C42.7642 20.953 43.0822 20.9223 43.3951 20.9326C43.708 20.9428 44.0184 20.9913 44.3186 21.0806C44.6188 21.1699 44.9139 21.295 45.1912 21.4839C45.4837 21.6779 45.7178 21.9663 45.8679 22.2726C46.0205 22.5789 46.0968 22.903 46.1324 23.2195C46.1884 23.85 46.1045 24.4498 45.9467 25.0216C45.8679 25.3049 45.7661 25.5959 45.6491 25.8536C45.5397 26.1217 45.41 26.3769 45.2828 26.6321C45.0131 27.135 44.7205 27.625 44.3974 28.0896C44.0744 28.5541 43.7335 29.0059 43.3646 29.4347C43.0033 29.8686 42.6166 30.2796 42.2198 30.6777L41.9171 30.9738L41.6067 31.2623L40.991 31.8417C40.7773 32.0254 40.5535 32.199 40.3016 32.3343C40.0523 32.4721 39.775 32.5717 39.4545 32.5946C39.3603 32.6023 39.2789 32.5308 39.2713 32.4338C39.2688 32.4057 39.2738 32.3777 39.284 32.3547L39.2866 32.347C39.4163 32.051 39.5918 31.8417 39.7776 31.64C39.9684 31.4486 40.1668 31.2674 40.3805 31.1066C40.5891 30.9381 40.8104 30.7824 41.0038 30.5961C41.103 30.5042 41.2022 30.4148 41.2989 30.323L41.5863 30.0396C41.9654 29.6593 42.3343 29.2663 42.6777 28.8553C43.0262 28.4469 43.3519 28.0181 43.6571 27.5791C43.965 27.1401 44.2346 26.6806 44.4865 26.2161C44.6035 25.9787 44.7256 25.7439 44.8223 25.5014C44.9342 25.2589 45.0131 25.0267 45.0818 24.7791C45.2192 24.2916 45.2828 23.7811 45.2395 23.3089C45.1886 22.8392 45.0105 22.441 44.6798 22.219C44.3211 21.9714 43.8301 21.8387 43.3595 21.8234C42.8863 21.8106 42.4182 21.9203 42.0977 22.1807C41.7161 22.4819 41.3904 22.8775 41.0852 23.3114C40.7799 23.7453 40.4822 24.2201 40.1439 24.677C39.8081 25.1339 39.4519 25.5729 39.0729 25.9915C38.6938 26.4126 38.2919 26.8083 37.8848 27.2013C37.4778 27.5944 37.0479 27.9671 36.5721 28.2785C36.1015 28.5924 35.5927 28.8604 34.9974 28.9421C34.9084 28.9549 34.8295 28.8936 34.8168 28.8043C34.8193 28.766 34.8295 28.7226 34.8549 28.6894Z" fill="#1B1B1B"/>
<path d="M47.3053 40.1804C43.5428 42.0743 39.882 43.3965 35.8319 44.3128C34.6515 44.4838 33.4711 44.6293 32.2932 44.7518C32.2296 44.7595 32.1686 44.7646 32.105 44.7722C23.8141 45.6273 15.625 45.3363 7.55042 43.8074C5.54322 42.4266 5.54322 37.577 7.15865 36.0455C14.5693 37.6535 22.9517 37.9752 32.105 37.2758L32.1075 37.2732C33.0412 37.2018 33.9824 37.1201 34.9339 37.0282C42.9576 36.0455 47.7123 31.6477 47.7123 31.6477C48.59 32.7452 49.1141 37.7276 47.3053 40.1804Z" fill="#CA2C02"/>
<g opacity="0.55">
<path opacity="0.55" d="M8.55784 43.9912C8.22203 43.9325 7.88622 43.8687 7.55042 43.8074C5.54322 42.4265 5.54322 37.5769 7.15865 36.0454C7.56823 36.1347 7.98035 36.219 8.39502 36.2981C8.3823 36.3211 8.37467 36.344 8.36958 36.3696C8.35941 36.367 8.34923 36.3645 8.3416 36.3645C6.7745 37.8474 6.72871 42.4546 8.55784 43.9912Z" fill="white"/>
</g>
<path d="M23.0204 45.6862C17.7391 45.6862 12.5417 45.2063 7.46902 44.2466C7.40796 44.2364 7.34945 44.2109 7.29857 44.1752C6.33695 43.5141 5.70858 42.1332 5.57375 40.3924C5.42111 38.4347 5.92482 36.5995 6.85337 35.7163C6.96022 35.6142 7.11032 35.5734 7.25278 35.604C14.989 37.2835 24.2873 37.6102 34.8881 36.5791C42.6523 35.6295 47.3638 31.3567 47.4096 31.3159C47.5011 31.2317 47.6207 31.1883 47.7454 31.1985C47.8675 31.2087 47.982 31.2674 48.0583 31.3644C49.081 32.6432 49.5592 37.8706 47.6614 40.4435C47.6207 40.4996 47.5647 40.5456 47.5037 40.5762C43.6877 42.4982 40.0091 43.8229 35.9286 44.7444C35.9158 44.7469 35.9057 44.7495 35.8929 44.752C31.5656 45.3774 27.2663 45.6862 23.0204 45.6862ZM7.73105 43.3865C16.7469 45.0813 26.1749 45.2446 35.7505 43.8714C39.7166 42.973 43.2959 41.6891 47.0076 39.8283C48.445 37.7608 48.2084 33.8173 47.5927 32.3318C46.2495 33.4242 41.7975 36.6327 34.9873 37.4673C24.2466 38.5138 15.1926 38.2075 7.31384 36.5306C6.69056 37.2861 6.34458 38.7946 6.46415 40.321C6.57099 41.7248 7.04163 42.8606 7.73105 43.3865Z" fill="#1B1B1B"/>
<path d="M17.3092 60.6229C16.3272 60.6229 14.3353 59.7729 13.4271 53.2821C13.394 53.037 13.5619 52.8124 13.8061 52.7767C14.0503 52.741 14.2742 52.912 14.3098 53.157C15.0094 58.17 16.4061 59.8291 17.388 59.7244C18.6015 59.5968 19.7845 56.9576 19.5428 53.374C19.525 53.1289 19.7107 52.9145 19.9574 52.8967C20.2042 52.8813 20.4154 53.0651 20.4306 53.3127C20.6952 57.2052 19.4003 60.4136 17.4822 60.6127C17.4287 60.6203 17.3702 60.6229 17.3092 60.6229Z" fill="#1B1B1B"/>
<path d="M31.8378 60.8092C30.6956 60.8092 28.813 59.6937 27.887 52.9425C27.8539 52.6975 28.0244 52.4728 28.2686 52.4397C28.5128 52.4065 28.7367 52.5775 28.7697 52.8225C29.5075 58.2006 30.9296 60.0051 31.9167 59.9133C33.1581 59.8009 34.771 56.8375 34.5777 52.2686C34.5675 52.0211 34.7583 51.8143 35.0025 51.8041C35.2468 51.7939 35.4554 51.9853 35.4655 52.2304C35.6589 56.7661 34.102 60.6126 31.9955 60.8041C31.9447 60.8066 31.8938 60.8092 31.8378 60.8092Z" fill="#1B1B1B"/>
<path d="M20.3441 28.3168C20.0999 28.5032 19.8404 28.664 19.5707 28.7992C19.1128 29.029 18.6167 29.1847 18.1054 29.2561C16.4773 29.4807 15.1264 28.8605 14.3352 27.8778C13.4932 26.8339 13.2846 25.379 14.0503 24.09C14.2869 23.6918 14.8008 23.5846 15.1875 23.8322C16.2788 24.529 17.762 24.2533 19.1433 23.3676C19.7412 22.9848 20.5222 22.9924 21.0793 23.4366C22.1249 24.2789 22.509 26.6679 20.3441 28.3168Z" fill="#1B1B1B"/>
<path d="M19.5707 28.7992C19.1128 29.0289 18.6167 29.1846 18.1054 29.2561C16.4772 29.4807 15.1264 28.8604 14.3352 27.8778C15.6581 26.3361 18.3572 26.1983 19.5707 28.7992Z" fill="#CA2C02"/>
<path d="M17.4592 29.6849C15.9557 29.6849 14.5998 29.0034 13.8188 27.819C13.0175 26.6066 12.9818 25.1415 13.7221 23.8959C13.8849 23.6202 14.147 23.4262 14.4599 23.3522C14.7753 23.2756 15.1162 23.3343 15.3935 23.513C16.2915 24.0873 17.5839 23.9163 18.9373 23.0485C19.6877 22.566 20.6443 22.6043 21.3133 23.1404C21.9341 23.6355 22.3131 24.5289 22.3004 25.4682C22.2851 26.6653 21.6746 27.7859 20.5756 28.6231C19.8607 29.1667 19.0263 29.519 18.1563 29.6364C17.9222 29.6696 17.6882 29.6849 17.4592 29.6849ZM14.7346 24.0848C14.7016 24.0848 14.6659 24.0899 14.6329 24.0975C14.5235 24.1231 14.4319 24.192 14.3759 24.289C13.7908 25.2768 13.8188 26.4381 14.4548 27.3979C15.1925 28.5159 16.5714 29.0825 18.0545 28.8809C18.7923 28.7788 19.5046 28.4801 20.1151 28.0156C21.0208 27.3239 21.527 26.4177 21.5397 25.4631C21.5474 24.7637 21.2726 24.0899 20.8402 23.7427C20.4255 23.4109 19.8251 23.3931 19.3494 23.6968C17.734 24.7331 16.144 24.9016 14.9839 24.1613C14.9051 24.1077 14.8211 24.0848 14.7346 24.0848Z" fill="#1B1B1B"/>
<path d="M23.9183 22.6119C23.7759 22.0657 23.7784 21.4506 24.0328 20.8635C24.1626 20.5751 24.3585 20.2943 24.6307 20.0774C24.9003 19.8579 25.2514 19.7047 25.6279 19.6894C26.0044 19.6613 26.3911 19.7889 26.6862 20.011C26.9889 20.2331 27.1822 20.547 27.2891 20.8584C27.3985 21.1724 27.4214 21.4914 27.3934 21.7901C27.3629 22.0887 27.2815 22.3695 27.1568 22.6298C27.1263 22.6962 27.0449 22.7242 26.9787 22.6936C26.9406 22.6757 26.9151 22.64 26.905 22.5992L26.9024 22.5915C26.849 22.321 26.8108 22.0683 26.7447 21.836C26.6785 21.6037 26.592 21.3919 26.4852 21.2183C26.2664 20.8661 25.979 20.6976 25.6686 20.7078C25.3557 20.7078 25.0122 20.9222 24.7553 21.2745C24.6256 21.4506 24.5136 21.6573 24.417 21.8819C24.3177 22.1091 24.2491 22.3541 24.1677 22.6145L24.1651 22.6221C24.1422 22.6911 24.0684 22.7294 23.9998 22.7064C23.9591 22.6885 23.9285 22.6528 23.9183 22.6119Z" fill="#1B1B1B"/>
<g opacity="0.3">
<g opacity="0.3">
<path opacity="0.3" d="M11.4783 48.3484C11.491 48.1442 11.5419 47.94 11.6335 47.7409C11.7251 47.5443 11.8675 47.358 12.0558 47.21C12.244 47.0645 12.4806 46.9624 12.7325 46.9368C12.9818 46.9088 13.2413 46.9496 13.4702 47.0543C13.6992 47.1589 13.9002 47.3274 14.0426 47.5316C14.1876 47.7358 14.2716 47.9783 14.2919 48.2182C14.3123 48.4556 14.2716 48.6904 14.1876 48.8921C14.1037 49.0963 13.9841 49.2724 13.8366 49.4179C13.7959 49.4562 13.7348 49.4562 13.6941 49.4153C13.6712 49.3924 13.6636 49.3617 13.6661 49.3337V49.3285C13.6916 49.1346 13.7119 48.9584 13.7119 48.79C13.7119 48.6215 13.6865 48.4684 13.6432 48.3331C13.5542 48.0625 13.3761 47.8634 13.1472 47.746C12.9182 47.6388 12.6511 47.6235 12.389 47.7383C12.2593 47.797 12.127 47.8838 12.0075 48.0012C11.8853 48.1161 11.7759 48.259 11.6564 48.4096L11.6538 48.4147C11.6208 48.4581 11.5572 48.4658 11.5139 48.4326C11.491 48.4122 11.4758 48.3816 11.4783 48.3484Z" fill="#1B1B1B"/>
</g>
</g>
<g opacity="0.3">
<g opacity="0.3">
<path opacity="0.3" d="M10.2776 33.3807C10.2827 33.1714 10.3285 32.9621 10.4201 32.7579C10.5116 32.5537 10.6541 32.3623 10.85 32.2066C11.0433 32.0534 11.2901 31.9488 11.5496 31.9207C11.8091 31.8901 12.0787 31.9335 12.3179 32.0432C12.557 32.153 12.7631 32.3291 12.9106 32.5435C13.0607 32.7579 13.1447 33.0106 13.1599 33.2582C13.1777 33.5058 13.1319 33.7457 13.0403 33.9499C12.9488 34.1567 12.819 34.3328 12.6613 34.4732C12.613 34.5166 12.5366 34.5115 12.4934 34.463C12.4705 34.4375 12.4629 34.4068 12.4654 34.3762V34.3685C12.4807 34.172 12.4959 33.9933 12.4883 33.83C12.4832 33.6666 12.4527 33.5186 12.4069 33.3909C12.3128 33.1357 12.1474 32.9596 11.9413 32.8498C11.7302 32.7503 11.4911 32.7273 11.2392 32.8268C11.1146 32.8779 10.9823 32.957 10.8602 33.0668C10.7355 33.1765 10.6185 33.3093 10.4913 33.4573L10.4862 33.4624C10.4429 33.5109 10.3692 33.516 10.3208 33.4752C10.2903 33.4496 10.2776 33.4139 10.2776 33.3807Z" fill="#1B1B1B"/>
</g>
</g>
<g opacity="0.3">
<g opacity="0.3">
<path opacity="0.3" d="M24.6714 30.3025C24.5467 30.1341 24.4526 29.9401 24.3992 29.7257C24.3457 29.5087 24.3381 29.2688 24.3966 29.0263C24.4551 28.7863 24.5823 28.549 24.7706 28.3652C24.9563 28.1814 25.1954 28.0461 25.4498 27.9849C25.7042 27.9236 25.9764 27.9338 26.2257 28.0104C26.475 28.087 26.6989 28.2325 26.8617 28.4162C27.027 28.6 27.139 28.817 27.1949 29.0339C27.2509 29.2535 27.2585 29.4704 27.2178 29.6797C27.2051 29.7435 27.1441 29.7869 27.0805 29.7742C27.0474 29.7691 27.022 29.7486 27.0041 29.7231L26.9991 29.718C26.8897 29.5546 26.7905 29.404 26.6836 29.279C26.5768 29.1539 26.4623 29.0569 26.3478 28.9829C26.1163 28.8425 25.8797 28.8042 25.6482 28.8476C25.4218 28.8987 25.2183 29.0314 25.0809 29.2662C25.0123 29.3836 24.9588 29.5266 24.9308 29.6899C24.9003 29.8533 24.8901 30.032 24.8825 30.2259V30.2336C24.88 30.2974 24.824 30.3485 24.7604 30.3459C24.7248 30.3459 24.6917 30.328 24.6714 30.3025Z" fill="#1B1B1B"/>
</g>
</g>
<g opacity="0.3">
<g opacity="0.3">
<path opacity="0.3" d="M24.4832 13.7167C24.4323 13.5151 24.4196 13.2981 24.4527 13.0786C24.4857 12.8591 24.5722 12.6319 24.7198 12.4328C24.8648 12.2337 25.0759 12.0653 25.3176 11.9683C25.5593 11.8688 25.8315 11.8381 26.091 11.8815C26.3505 11.9224 26.5972 12.0372 26.7957 12.2031C26.9966 12.369 27.1467 12.5885 27.2281 12.8234C27.3121 13.0556 27.3299 13.3007 27.2968 13.5227C27.2637 13.7448 27.1874 13.9515 27.0704 14.1277C27.0348 14.1838 26.961 14.1991 26.905 14.1634C26.8771 14.1455 26.8592 14.1174 26.8542 14.0868L26.8516 14.0792C26.8135 13.8852 26.7804 13.7091 26.7295 13.5534C26.6786 13.3977 26.6099 13.2624 26.5336 13.1526C26.3759 12.9331 26.1698 12.808 25.9409 12.757C25.7119 12.7162 25.4728 12.7596 25.2566 12.9255C25.1497 13.0071 25.0454 13.1194 24.9538 13.2573C24.8623 13.3951 24.7859 13.5559 24.702 13.732L24.6994 13.7371C24.6715 13.7958 24.6028 13.8214 24.5443 13.7933C24.5137 13.778 24.4908 13.7473 24.4832 13.7167Z" fill="#1B1B1B"/>
</g>
</g>
<g opacity="0.3">
<g opacity="0.3">
<path opacity="0.3" d="M19.9523 49.8057C19.9192 49.604 19.9243 49.3922 19.9675 49.1778C20.0133 48.966 20.11 48.7516 20.2627 48.5653C20.4128 48.3789 20.6214 48.2283 20.8605 48.1467C21.0971 48.0624 21.3591 48.0446 21.6059 48.0956C21.8527 48.1467 22.0842 48.2641 22.2699 48.4325C22.4556 48.5984 22.593 48.8154 22.6642 49.0451C22.738 49.2722 22.7507 49.5096 22.7151 49.7266C22.6795 49.9435 22.6006 50.1426 22.4887 50.3187C22.4581 50.3646 22.3971 50.3799 22.3513 50.3493C22.3259 50.3314 22.308 50.3034 22.3055 50.2753V50.2702C22.2852 50.0762 22.2673 49.8976 22.2292 49.7342C22.191 49.5709 22.1325 49.4254 22.0587 49.3029C21.9112 49.0578 21.6924 48.9047 21.4456 48.8435C21.1989 48.7899 20.9343 48.8358 20.7053 49.0068C20.5908 49.0936 20.484 49.2084 20.3924 49.3488C20.2983 49.4892 20.2245 49.6525 20.1405 49.8261L20.138 49.8312C20.1151 49.8797 20.0566 49.9027 20.0057 49.8797C19.9752 49.8644 19.9574 49.8363 19.9523 49.8057Z" fill="#1B1B1B"/>
</g>
</g>
<g opacity="0.3">
<g opacity="0.3">
<path opacity="0.3" d="M26.1317 34.9991C25.8671 34.8817 25.6203 34.6418 25.5364 34.2845C25.4957 34.1109 25.5033 33.9118 25.5669 33.7306C25.6305 33.5494 25.745 33.3834 25.8951 33.2635C26.1902 33.0159 26.6303 32.9546 26.961 33.1078C27.2943 33.2507 27.4953 33.5417 27.5512 33.8352C27.5614 33.8914 27.5258 33.9475 27.4673 33.9578C27.4444 33.9629 27.4215 33.9577 27.4037 33.9501L27.3961 33.9475C27.2689 33.8888 27.162 33.8327 27.0577 33.7969C26.9534 33.7612 26.8593 33.7433 26.7753 33.7408C26.6074 33.7357 26.4802 33.7842 26.3708 33.8608C26.2665 33.945 26.1851 34.0547 26.1597 34.2207C26.1291 34.3891 26.18 34.6112 26.2691 34.8664L26.2716 34.8715C26.2894 34.9251 26.2614 34.9838 26.208 35.0043C26.18 35.0094 26.1546 35.0094 26.1317 34.9991Z" fill="#1B1B1B"/>
</g>
</g>
<g opacity="0.3">
<g opacity="0.3">
<path opacity="0.3" d="M17.5407 15.9017C17.2761 15.7843 17.0293 15.5444 16.9454 15.187C16.9047 15.0135 16.9123 14.8144 16.9759 14.6332C17.0395 14.4519 17.154 14.286 17.3041 14.1661C17.5992 13.9185 18.0393 13.8572 18.37 14.0104C18.7032 14.1533 18.9042 14.4443 18.9602 14.7378C18.9704 14.794 18.9347 14.8501 18.8762 14.8603C18.8533 14.8654 18.8304 14.8603 18.8126 14.8527L18.805 14.8501C18.6778 14.7914 18.571 14.7353 18.4667 14.6995C18.3624 14.6612 18.2682 14.6459 18.1843 14.6434C18.0164 14.6383 17.8892 14.6868 17.7798 14.7633C17.6755 14.8476 17.5941 14.9573 17.5687 15.1232C17.5381 15.2917 17.589 15.5138 17.6806 15.769L17.6831 15.7741C17.7009 15.8277 17.673 15.8864 17.6195 15.9068C17.589 15.9145 17.5636 15.9119 17.5407 15.9017Z" fill="#1B1B1B"/>
</g>
</g>
<g opacity="0.3">
<g opacity="0.3">
<path opacity="0.3" d="M27.5486 49.788C27.2841 49.6706 27.0373 49.4306 26.9533 49.0733C26.9126 48.8997 26.9203 48.7006 26.9839 48.5194C27.0475 48.3382 27.1619 48.1723 27.312 48.0523C27.6071 47.8047 28.0473 47.7435 28.378 47.8966C28.7112 48.0395 28.9122 48.3305 28.9682 48.624C28.9784 48.6802 28.9427 48.7364 28.8842 48.7466C28.8613 48.7517 28.8384 48.7466 28.8206 48.7389L28.813 48.7364C28.6858 48.6777 28.579 48.6215 28.4747 48.5858C28.3703 48.55 28.2762 48.5322 28.1923 48.5296C28.0244 48.5245 27.8972 48.573 27.7878 48.6496C27.6835 48.7338 27.6021 48.8436 27.5766 49.0095C27.5461 49.1779 27.597 49.4 27.686 49.6552L27.6885 49.6603C27.7064 49.7139 27.6784 49.7727 27.6249 49.7931C27.597 49.7982 27.5715 49.7982 27.5486 49.788Z" fill="#1B1B1B"/>
</g>
</g>
<path d="M9.94685 22.0402C9.80439 21.494 9.80693 20.8788 10.0613 20.2918C10.1911 20.0033 10.387 19.7226 10.6592 19.5056C10.9288 19.2861 11.2799 19.1329 11.6564 19.1176C12.0329 19.0895 12.4196 19.2172 12.7147 19.4392C13.0174 19.6613 13.2108 19.9752 13.3176 20.2867C13.427 20.6006 13.4499 20.9197 13.4219 21.2183C13.3914 21.5169 13.31 21.7977 13.1853 22.0581C13.1548 22.1244 13.0734 22.1525 13.0073 22.1219C12.9691 22.104 12.9437 22.0683 12.9335 22.0274L12.9309 22.0198C12.8775 21.7492 12.8394 21.4991 12.7732 21.2643C12.7071 21.032 12.6206 20.8201 12.5137 20.6466C12.2949 20.2943 12.0075 20.1258 11.6971 20.1361C11.3842 20.1361 11.0408 20.3505 10.7838 20.7002C10.6541 20.8763 10.5421 21.083 10.4455 21.3076C10.3463 21.5348 10.2776 21.7799 10.1962 22.0402L10.1936 22.0479C10.1707 22.1168 10.0969 22.1551 10.0283 22.1321C9.9901 22.1193 9.95957 22.0836 9.94685 22.0402Z" fill="#1B1B1B"/>
<g opacity="0.3">
<path opacity="0.3" d="M45.331 25.4633C44.2753 28.1306 41.716 30.8821 39.373 32.4723L34.9313 28.8172C35.4197 28.5262 35.8954 28.2123 36.3559 27.8728C36.4068 27.9417 37.9917 30.0883 40.4975 28.8733C43.2119 26.9233 44.4381 23.4902 44.4839 21.7699L44.7103 21.7112C44.7841 21.7495 44.8553 21.7903 44.9215 21.8337C46.0357 22.5765 45.7635 24.3683 45.331 25.4633Z" fill="#1B1B1B"/>
</g>
<g opacity="0.3">
<path opacity="0.3" d="M46.5445 32.5667C46.0027 32.9572 45.2776 33.437 44.3796 33.9399C42.2579 35.308 38.5742 37.1917 33.6593 37.7941C33.4049 37.8196 33.153 37.84 32.9012 37.863C34.1426 39.5961 33.8653 44.3972 32.2932 44.752C33.4685 44.6295 34.6514 44.484 35.8318 44.313C39.4774 43.4886 42.8074 42.3349 46.1808 40.7294C47.7428 38.3148 47.3332 33.8735 46.5445 32.5667Z" fill="#1B1B1B"/>
</g>
<g opacity="0.3">
<path opacity="0.3" d="M39.8259 50.7041C40.1414 50.4438 40.4365 50.0533 40.7087 49.507C42.0442 49.3156 42.2986 46.6023 40.5179 46.4441C42.0264 45.0377 42.1587 43.8916 40.9198 42.9983L31.759 44.9152C31.7488 44.8999 31.7361 44.8846 31.7234 44.8667C32.3416 45.6886 32.2296 46.513 31.3825 47.3349C31.8353 47.8505 31.5631 48.2589 31.1052 48.6418C31.7437 49.3258 31.8175 49.9767 31.1052 50.5867C32.6112 52.2535 31.8989 52.8941 30.113 53.0371C31.179 54.0453 33.4024 53.8717 33.8832 51.7557C35.0712 52.4475 36.1702 52.6389 37.0199 51.3729C37.8365 51.6945 38.5081 51.4954 38.9279 50.3953C39.457 50.6761 39.9582 50.7807 40.4237 50.6658C40.2304 50.7194 40.0294 50.7297 39.8259 50.7041Z" fill="#1B1B1B"/>
</g>
<g opacity="0.3">
<path opacity="0.3" d="M15.4011 58.6475C17.3295 59.0712 18.5099 54.4411 17.0878 53.2874L19.9854 53.3461C20.367 58.9411 17.4643 62.3103 15.4011 58.6475Z" fill="#1B1B1B"/>
</g>
</svg>
