<svg width="48" height="35" viewBox="0 0 48 35" fill="none" xmlns="http://www.w3.org/2000/svg">
<path fill-rule="evenodd" clip-rule="evenodd" d="M31.6196 0.0552385C32.2189 4.23111 32.1094 8.48161 31.2959 12.6193L1.45619 14L0.930387 13.1164L0 11.5562C12.0411 4.19723 17.9065 2.85798 31.6196 0V0.0552385ZM10.9893 8.94675C11.1641 8.93848 11.3374 8.984 11.4868 9.07745C11.6361 9.1709 11.7547 9.30799 11.8273 9.47107C11.8999 9.63416 11.9231 9.81576 11.894 9.99249C11.8649 10.1692 11.7848 10.3329 11.664 10.4626C11.5431 10.5923 11.3872 10.682 11.2162 10.7201C11.0451 10.7582 10.8669 10.743 10.7043 10.6765C10.5418 10.61 10.4025 10.4951 10.3043 10.3468C10.2061 10.1985 10.1535 10.0234 10.1533 9.84417C10.1496 9.61215 10.2353 9.38795 10.3917 9.22003C10.5481 9.05212 10.7627 8.95397 10.9893 8.94675ZM11.1781 8.07692C11.4846 8.06314 11.7882 8.14363 12.0497 8.30799C12.3112 8.47235 12.5186 8.71305 12.6454 8.99916C12.7721 9.28528 12.8123 9.60372 12.7608 9.91344C12.7094 10.2232 12.5685 10.51 12.3565 10.7371C12.1445 10.9642 11.8709 11.1211 11.571 11.1876C11.2712 11.2542 10.9587 11.2273 10.6739 11.1104C10.3891 10.9936 10.1449 10.7922 9.97279 10.5321C9.80072 10.2719 9.70866 9.96504 9.70837 9.65086C9.70111 9.24306 9.8515 8.84885 10.1268 8.55405C10.4021 8.25926 10.7799 8.08778 11.1781 8.07692Z" fill="#1B1B1B"/>
<path fill-rule="evenodd" clip-rule="evenodd" d="M11.1781 8.07692C11.4846 8.06314 11.7882 8.14363 12.0497 8.30799C12.3112 8.47235 12.5186 8.71305 12.6454 8.99916C12.7721 9.28528 12.8123 9.60372 12.7608 9.91344C12.7094 10.2232 12.5685 10.51 12.3565 10.7371C12.1445 10.9642 11.8709 11.1211 11.571 11.1876C11.2712 11.2542 10.9587 11.2273 10.6739 11.1104C10.3891 10.9936 10.1449 10.7922 9.97279 10.5321C9.80072 10.2719 9.70866 9.96504 9.70837 9.65086C9.70111 9.24306 9.8515 8.84885 10.1268 8.55405C10.4021 8.25926 10.7799 8.08778 11.1781 8.07692ZM11.4868 9.07745C11.3374 8.984 11.1641 8.93848 10.9893 8.94675C10.7627 8.95397 10.5481 9.05212 10.3917 9.22003C10.2353 9.38795 10.1496 9.61215 10.1533 9.84417C10.1535 10.0234 10.2061 10.1985 10.3043 10.3468C10.4025 10.4951 10.5418 10.61 10.7043 10.6765C10.8669 10.743 11.0451 10.7582 11.2162 10.7201C11.3872 10.682 11.5431 10.5923 11.664 10.4626C11.7848 10.3329 11.8649 10.1692 11.894 9.99249C11.9231 9.81576 11.8999 9.63416 11.8273 9.47107C11.7547 9.30799 11.6361 9.1709 11.4868 9.07745Z" fill="white"/>
<path fill-rule="evenodd" clip-rule="evenodd" d="M41 5.07531C38.869 2.95164 36.2069 1.5358 33.3373 1C33.4859 5.63871 33.0359 10.2772 32 14.7846L33.6449 16C36.1991 14.5701 40.1307 8.44995 40.9732 5.07531H41Z" fill="#1B1B1B"/>
<path fill-rule="evenodd" clip-rule="evenodd" d="M46.9613 14.5941C46.2973 11.6846 44.8472 9.04495 42.7897 7C41 11.6659 38.7983 14.0741 35 17.0981L35.7339 19C40.3691 18.5758 43.4592 17.8917 47 14.5394L46.9613 14.5941Z" fill="#1B1B1B"/>
<path fill-rule="evenodd" clip-rule="evenodd" d="M45.9846 27C47.7208 23.9116 48.3572 20.4217 47.8082 17C43.5671 19.4273 40.3863 19.933 35.4665 19.9836L35 21.8167C37.474 24.0038 39.5239 25.6094 45.9846 27Z" fill="#1B1B1B"/>
<path fill-rule="evenodd" clip-rule="evenodd" d="M44 29.0264C40.5077 28.255 37.3251 26.5075 34.8456 24C33.8792 26.2398 31.5704 28.4144 26.8724 28.1149C27.1239 29.8967 26.8201 31.7107 26 33.3236C34.2148 37.2302 39.4228 33.7012 44 28.9613V29.0264Z" fill="#1B1B1B"/>
<path fill-rule="evenodd" clip-rule="evenodd" d="M24.6809 33C25.1701 32.5564 26.6512 31.2812 25.6729 27.8158L10.5358 19L10.957 23.5881L4 26.4297L24.6945 33H24.6809Z" fill="#1B1B1B"/>
<path fill-rule="evenodd" clip-rule="evenodd" d="M33.4874 18.1633C30.2227 19.619 28.7117 20.4218 27.7944 24C29.5635 22.2707 31.6796 20.9438 34 20.1088C33.9332 19.4369 33.7601 18.78 33.4874 18.1633ZM28.0912 14C28.8675 14.1585 29.6171 14.4288 30.3171 14.8027C26.877 17.932 26.27 18.2993 24.1115 22.4762C23.5719 18.3946 25.0019 17.2381 28.1586 14H28.0912ZM31.855 15.9456C32.2727 16.3491 32.6355 16.8066 32.9342 17.3061C30.1199 18.7008 27.6914 20.7761 25.8652 23.3469C26.1216 19.2653 27.727 18.381 31.3829 15.7959L31.855 16V15.9456Z" fill="#1B1B1B"/>
</svg>
